<svg width="60" height="57" viewBox="0 0 60 47" fill="none" xmlns="http://www.w3.org/2000/svg">
<path d="M26.5226 0C26.5211 0 26.5205 0 26.5205 0L30.8357 43.5436C31.0239 45.4461 32.6438 46.8714 34.6032 46.8714H51.9198C53.8792 46.8714 55.4988 45.4461 55.6872 43.5438L60.0001 0H26.5226Z" fill="#FF671F"/>
<path fill-rule="evenodd" clip-rule="evenodd" d="M38.3669 19.8735C39.2261 19.8735 39.8562 19.3582 39.8562 18.5208C39.8562 17.6836 39.2261 17.1683 38.3669 17.1683H37.6795V19.8735H38.3669ZM35.0218 20.8825V16.1592C35.0218 15.3541 35.6518 14.7637 36.511 14.7637H38.2867C40.6352 14.7637 42.514 16.2129 42.514 18.5208C42.514 20.8288 40.6352 22.278 38.2867 22.278H36.511C35.6518 22.278 35.0218 21.6876 35.0218 20.8825Z" fill="white"/>
<path fill-rule="evenodd" clip-rule="evenodd" d="M43.0761 20.8042V15.5656C43.0761 14.8786 43.6374 14.3955 44.3591 14.3955C44.9205 14.3955 45.287 14.6317 45.5963 15.0181L47.1314 16.9504C47.4064 17.2939 47.7043 17.6804 47.9563 18.0883V15.7911C47.9563 14.9752 48.4145 14.3955 49.2851 14.3955C50.1559 14.3955 50.6141 14.9752 50.6141 15.7911V21.0404C50.6141 21.7274 50.0527 22.2104 49.3424 22.2104C48.7697 22.2104 48.4145 21.9743 48.0938 21.5879L46.467 19.6556C46.2264 19.3657 45.9515 18.9793 45.7338 18.6572V20.8042C45.7338 21.6308 45.2756 22.2104 44.405 22.2104C43.5343 22.2104 43.0761 21.6308 43.0761 20.8042Z" fill="white"/>
<path fill-rule="evenodd" clip-rule="evenodd" d="M39.3063 30.5771L38.2523 29.3747C38.0003 29.0849 37.8972 28.9668 37.6795 28.6877V29.8685C37.6795 30.6092 37.1296 31.1352 36.3506 31.1352C35.5716 31.1352 35.0218 30.6092 35.0218 29.8685V24.587C35.0218 23.8463 35.5716 23.3203 36.3506 23.3203C37.1296 23.3203 37.6795 23.8463 37.6795 24.587V25.725C37.8857 25.4458 38.0003 25.3063 38.2523 25.0057L39.1688 23.9107C40.3832 22.4615 42.5369 24.1576 41.2309 25.5854L39.7645 27.1956L41.3454 28.8702C42.5941 30.1906 40.5779 32.037 39.3063 30.5771Z" fill="white"/>
<path fill-rule="evenodd" clip-rule="evenodd" d="M43.0761 29.729V24.4904C43.0761 23.8034 43.6374 23.3203 44.3591 23.3203C44.9205 23.3203 45.2871 23.5565 45.5963 23.9429L47.1315 25.8752C47.4064 26.2187 47.7043 26.6052 47.9563 27.0131V24.7159C47.9563 23.9 48.4145 23.3203 49.2851 23.3203C50.1559 23.3203 50.6141 23.9 50.6141 24.7159V29.9652C50.6141 30.6522 50.0528 31.1352 49.3424 31.1352C48.7697 31.1352 48.4145 30.8991 48.0938 30.5127L46.467 28.5804C46.2264 28.2905 45.9516 27.9041 45.7338 27.582V29.729C45.7338 30.5556 45.2756 31.1352 44.405 31.1352C43.5343 31.1352 43.0761 30.5556 43.0761 29.729Z" fill="white"/>
<path fill-rule="evenodd" clip-rule="evenodd" d="M53.4185 22.2432C53.8792 22.3 54.3635 22.6008 54.4603 23.1377C54.5132 23.4318 54.4392 23.8151 54.2978 24.2814C54.1619 24.7292 54.023 25.1416 53.7183 25.3916C53.4772 25.5895 53.185 25.636 52.947 25.6067L52.9357 25.6053C52.6978 25.5753 52.4288 25.4589 52.2512 25.2088C52.0267 24.8928 52.0077 24.4608 52.0014 23.9952C51.9949 23.5105 52.0304 23.1225 52.1635 22.8516C52.4067 22.3569 52.958 22.1852 53.4185 22.2432Z" fill="white"/>
<rect y="10.0439" width="23.5876" height="3.14484" rx="1.57242" fill="#FF671F"/>
<rect x="8.84518" y="16.332" width="14.7422" height="3.14484" rx="1.57242" fill="#FF671F"/>
<rect x="14.0046" y="22.625" width="9.58245" height="3.14484" rx="1.57242" fill="#FF671F"/>
</svg>
