<svg width="32" height="32" viewBox="0 0 32 32" fill="none" xmlns="http://www.w3.org/2000/svg">
<ellipse cx="16.1277" cy="16.3399" rx="15.7186" ry="15.4795" fill="#FF671F"/>
<path d="M22.0727 19.0084C21.2134 19.0084 20.3821 18.8708 19.6066 18.6231C19.3621 18.5406 19.0897 18.6025 18.901 18.7882L17.8042 20.1435C15.8272 19.2148 13.9759 17.4604 12.9909 15.4447L14.3531 14.3026C14.5417 14.11 14.5976 13.8417 14.5208 13.6009C14.2623 12.8372 14.1296 12.0185 14.1296 11.1723C14.1296 10.8008 13.8152 10.4912 13.438 10.4912H11.0208C10.6435 10.4912 10.1895 10.6563 10.1895 11.1723C10.1895 17.5636 15.5897 22.8748 22.0727 22.8748C22.5687 22.8748 22.7643 22.4414 22.7643 22.063V19.6895C22.7643 19.318 22.4499 19.0084 22.0727 19.0084Z" fill="white" stroke="white"/>
</svg>
