<svg width="26" height="31" viewBox="0 0 26 31" fill="none" xmlns="http://www.w3.org/2000/svg">
<path d="M13 0C5.82706 0 0 5.9055 0 13.175C0 20.4445 5.82706 26.35 13 26.35H13.7647V31C21.1976 27.373 26 20.15 26 13.175C26 5.9055 20.1729 0 13 0ZM14.5294 22.475H11.4706V19.375H14.5294V22.475ZM14.5294 17.05H11.4706C11.4706 12.0125 16.0588 12.4 16.0588 9.3C16.0588 7.595 14.6824 6.2 13 6.2C11.3176 6.2 9.94118 7.595 9.94118 9.3H6.88235C6.88235 5.8745 9.62 3.1 13 3.1C16.38 3.1 19.1176 5.8745 19.1176 9.3C19.1176 13.175 14.5294 13.5625 14.5294 17.05Z" fill="#FF671F"/>
</svg>
