<svg width="32" height="32" viewBox="0 0 32 32" fill="none" xmlns="http://www.w3.org/2000/svg">
<path d="M30.9987 13.8563C30.998 13.8556 30.9973 13.8549 30.9966 13.8542L18.1727 1.22582C17.6261 0.68729 16.8994 0.390625 16.1263 0.390625C15.3533 0.390625 14.6266 0.687054 14.0797 1.22559L1.26258 13.8476C1.25827 13.8518 1.25395 13.8563 1.24963 13.8606C0.127153 14.9723 0.129072 16.7762 1.25515 17.8851C1.76962 18.392 2.4491 18.6856 3.1756 18.7163C3.2051 18.7192 3.23484 18.7206 3.26482 18.7206H3.77593V28.0143C3.77593 29.8533 5.29536 31.3497 7.16328 31.3497H12.1804C12.6889 31.3497 13.1014 30.9436 13.1014 30.4426V23.1564C13.1014 22.3172 13.7945 21.6346 14.6467 21.6346H17.6059C18.4581 21.6346 19.1513 22.3172 19.1513 23.1564V30.4426C19.1513 30.9436 19.5636 31.3497 20.0723 31.3497H25.0894C26.9573 31.3497 28.4767 29.8533 28.4767 28.0143V18.7206H28.9507C29.7235 18.7206 30.4502 18.4242 30.9973 17.8856C32.1246 16.7748 32.125 14.9679 30.9987 13.8563Z" fill="#FF671F"/>
</svg>
