<svg width="60" height="70" viewBox="0 0 60 70" fill="none" xmlns="http://www.w3.org/2000/svg">
<rect x="0.891602" y="0.866211" width="60.866" height="70.866" rx="0" fill="white"/>
<path d="M46.9321 95.9324H49.7041V103.534H54.3801V105.732H46.9321V95.9324ZM58.6944 98.0184C59.9544 98.0184 60.9158 98.3078 61.5784 98.8864C62.2411 99.4558 62.5724 100.333 62.5724 101.518V105.732H60.0944V104.752C59.7118 105.49 58.9651 105.858 57.8544 105.858C57.2664 105.858 56.7578 105.756 56.3284 105.55C55.8991 105.345 55.5724 105.07 55.3484 104.724C55.1338 104.37 55.0264 103.968 55.0264 103.52C55.0264 102.802 55.3018 102.246 55.8524 101.854C56.4031 101.453 57.2524 101.252 58.4004 101.252H59.9124C59.8658 100.45 59.3291 100.048 58.3024 100.048C57.9384 100.048 57.5698 100.109 57.1964 100.23C56.8231 100.342 56.5058 100.501 56.2444 100.706L55.3484 98.9004C55.7684 98.6204 56.2771 98.4058 56.8744 98.2564C57.4811 98.0978 58.0878 98.0184 58.6944 98.0184ZM58.5964 104.178C58.9044 104.178 59.1751 104.104 59.4084 103.954C59.6418 103.805 59.8098 103.586 59.9124 103.296V102.638H58.7644C57.9898 102.638 57.6024 102.895 57.6024 103.408C57.6024 103.642 57.6911 103.828 57.8684 103.968C58.0458 104.108 58.2884 104.178 58.5964 104.178ZM66.7855 99.0544C67.0561 98.7091 67.4061 98.4524 67.8355 98.2844C68.2741 98.1071 68.7735 98.0184 69.3335 98.0184V100.412C69.0908 100.384 68.8901 100.37 68.7315 100.37C68.1621 100.37 67.7141 100.524 67.3875 100.832C67.0701 101.14 66.9115 101.612 66.9115 102.246V105.732H64.2515V98.1444H66.7855V99.0544ZM78.5248 98.1444V104.346C78.5248 105.756 78.1421 106.81 77.3768 107.51C76.6115 108.22 75.5101 108.574 74.0728 108.574C73.3261 108.574 72.6261 108.49 71.9728 108.322C71.3195 108.154 70.7641 107.907 70.3068 107.58L71.2728 105.718C71.5808 105.97 71.9681 106.166 72.4348 106.306C72.9108 106.456 73.3775 106.53 73.8348 106.53C74.5348 106.53 75.0481 106.376 75.3748 106.068C75.7015 105.76 75.8648 105.303 75.8648 104.696V104.444C75.3515 105.042 74.6001 105.34 73.6108 105.34C72.9388 105.34 72.3181 105.191 71.7488 104.892C71.1795 104.584 70.7268 104.155 70.3908 103.604C70.0548 103.044 69.8868 102.4 69.8868 101.672C69.8868 100.954 70.0548 100.319 70.3908 99.7684C70.7268 99.2084 71.1795 98.7791 71.7488 98.4804C72.3181 98.1724 72.9388 98.0184 73.6108 98.0184C74.6935 98.0184 75.4868 98.3684 75.9908 99.0684V98.1444H78.5248ZM74.2408 103.226C74.7168 103.226 75.1088 103.082 75.4168 102.792C75.7341 102.503 75.8928 102.13 75.8928 101.672C75.8928 101.215 75.7388 100.846 75.4308 100.566C75.1228 100.277 74.7261 100.132 74.2408 100.132C73.7555 100.132 73.3541 100.277 73.0368 100.566C72.7288 100.846 72.5748 101.215 72.5748 101.672C72.5748 102.13 72.7335 102.503 73.0508 102.792C73.3681 103.082 73.7648 103.226 74.2408 103.226ZM87.9899 101.952C87.9899 101.971 87.9759 102.19 87.9479 102.61H82.4319C82.5439 103.002 82.7585 103.306 83.0759 103.52C83.4025 103.726 83.8085 103.828 84.2939 103.828C84.6579 103.828 84.9705 103.777 85.2319 103.674C85.5025 103.572 85.7732 103.404 86.0439 103.17L87.4439 104.626C86.7065 105.448 85.6285 105.858 84.2099 105.858C83.3232 105.858 82.5439 105.69 81.8719 105.354C81.1999 105.018 80.6772 104.552 80.3039 103.954C79.9399 103.357 79.7579 102.68 79.7579 101.924C79.7579 101.178 79.9352 100.51 80.2899 99.9224C80.6539 99.3251 81.1532 98.8584 81.7879 98.5224C82.4225 98.1864 83.1365 98.0184 83.9299 98.0184C84.6859 98.0184 85.3719 98.1771 85.9879 98.4944C86.6039 98.8024 87.0892 99.2551 87.4439 99.8524C87.8079 100.44 87.9899 101.14 87.9899 101.952ZM83.9439 99.9084C83.5332 99.9084 83.1879 100.025 82.9079 100.258C82.6372 100.492 82.4645 100.809 82.3899 101.21H85.4979C85.4232 100.809 85.2459 100.492 84.9659 100.258C84.6952 100.025 84.3545 99.9084 83.9439 99.9084Z" fill="#C0C0C0"/>
<path d="M85.8894 38.5495H85.8416L84.5521 33.1632C84.3491 32.3052 83.5192 31.6605 82.4983 31.5538L53.8418 28.5789C52.5283 28.4418 51.3463 29.2338 51.1851 30.3456L49.991 38.5495H49.6507C48.3313 38.5495 47.2627 39.4583 47.2627 40.5802C47.2627 41.7022 48.3313 42.6109 49.6507 42.6109H49.6925L52.8746 79.2951C53.0537 81.3512 55.0895 82.9605 57.5134 82.9605H78.0327C80.4566 82.9605 82.4924 81.3512 82.6715 79.2951L85.8535 42.6109H85.8953C87.2147 42.6109 88.2834 41.7022 88.2834 40.5802C88.2834 39.4583 87.2028 38.5495 85.8894 38.5495ZM55.6268 32.8586L80.2118 35.4121L80.964 38.5546H54.803L55.6268 32.8586ZM77.9133 78.8991H57.6268L54.4806 42.616H81.0595L77.9133 78.8991Z" fill="#C0C0C0"/>
<path fill-rule="evenodd" clip-rule="evenodd" d="M63.6356 54.5812C64.3542 54.5812 64.8811 54.1502 64.8811 53.4499C64.8811 52.7497 64.3542 52.3187 63.6356 52.3187H63.0607V54.5812H63.6356ZM60.8379 55.425V51.4748C60.8379 50.8014 61.3648 50.3076 62.0834 50.3076H63.5685C65.5326 50.3076 67.104 51.5196 67.104 53.4499C67.104 55.3801 65.5326 56.5922 63.5685 56.5922H62.0834C61.3648 56.5922 60.8379 56.0984 60.8379 55.425Z" fill="#C0C0C0"/>
<path fill-rule="evenodd" clip-rule="evenodd" d="M67.5732 55.3599V50.9786C67.5732 50.404 68.0427 50 68.6463 50C69.1158 50 69.4224 50.1975 69.6811 50.5207L70.9649 52.1368C71.1949 52.4241 71.444 52.7473 71.6548 53.0884V51.1672C71.6548 50.4848 72.038 50 72.7662 50C73.4944 50 73.8776 50.4848 73.8776 51.1672V55.5574C73.8776 56.132 73.4082 56.536 72.8141 56.536C72.3351 56.536 72.038 56.3385 71.7698 56.0153L70.4092 54.3993C70.208 54.1568 69.9781 53.8336 69.7961 53.5643V55.3599C69.7961 56.0512 69.4128 56.536 68.6847 56.536C67.9565 56.536 67.5732 56.0512 67.5732 55.3599Z" fill="#C0C0C0"/>
<path fill-rule="evenodd" clip-rule="evenodd" d="M64.4212 63.533L63.5397 62.5274C63.329 62.285 63.2427 62.1863 63.0607 61.9529V62.9404C63.0607 63.5599 62.6008 63.9998 61.9493 63.9998C61.2978 63.9998 60.8379 63.5599 60.8379 62.9404V58.5233C60.8379 57.9038 61.2978 57.4639 61.9493 57.4639C62.6008 57.4639 63.0607 57.9038 63.0607 58.5233V59.475C63.2331 59.2415 63.329 59.1248 63.5397 58.8734L64.3063 57.9576C65.3219 56.7456 67.1231 58.1642 66.0309 59.3582L64.8045 60.7049L66.1267 62.1055C67.171 63.2098 65.4848 64.754 64.4212 63.533Z" fill="#C0C0C0"/>
<path fill-rule="evenodd" clip-rule="evenodd" d="M67.5732 62.8238V58.4425C67.5732 57.8679 68.0427 57.4639 68.6463 57.4639C69.1158 57.4639 69.4224 57.6614 69.6811 57.9846L70.9649 59.6007C71.1949 59.888 71.444 60.2112 71.6548 60.5523V58.631C71.6548 57.9487 72.038 57.4639 72.7662 57.4639C73.4944 57.4639 73.8776 57.9487 73.8776 58.631V63.0213C73.8776 63.5958 73.4082 63.9998 72.8141 63.9998C72.3351 63.9998 72.038 63.8024 71.7698 63.4792L70.4092 61.8631C70.208 61.6207 69.9781 61.2975 69.7961 61.0281V62.8238C69.7961 63.5151 69.4128 63.9998 68.6847 63.9998C67.9565 63.9998 67.5732 63.5151 67.5732 62.8238Z" fill="#C0C0C0"/>
<path fill-rule="evenodd" clip-rule="evenodd" d="M76.2249 56.5637C76.6102 56.6112 77.0152 56.8627 77.0961 57.3118C77.1404 57.5578 77.0785 57.8784 76.9603 58.2683C76.8466 58.6429 76.7304 58.9878 76.4756 59.1969C76.2739 59.3624 76.0296 59.4012 75.8305 59.3767L75.821 59.3756C75.6221 59.3505 75.3971 59.2531 75.2485 59.044C75.0608 58.7797 75.0449 58.4184 75.0397 58.029C75.0342 57.6236 75.0639 57.2991 75.1752 57.0725C75.3786 56.6588 75.8397 56.5152 76.2249 56.5637Z" fill="#C0C0C0"/>
</svg>
