<svg width="39" height="54" viewBox="0 0 29 38" fill="none" xmlns="http://www.w3.org/2000/svg">
<path d="M14.5 0C10.6557 0.00424383 6.97006 1.50719 4.25172 4.1791C1.53338 6.85101 0.00431757 10.4737 0 14.2523C0 24.2943 12.8152 37.0062 13.3607 37.5424C13.6649 37.8357 14.0739 38 14.5 38C14.9261 38 15.3351 37.8357 15.6393 37.5424C16.1848 37.0062 29 24.2943 29 14.2523C28.9957 10.4737 27.4666 6.85101 24.7483 4.1791C22.0299 1.50719 18.3443 0.00424383 14.5 0V0ZM14.5 23.7539C12.5881 23.7539 10.7192 23.1966 9.12949 22.1526C7.53981 21.1086 6.30081 19.6246 5.56916 17.8884C4.83752 16.1522 4.64609 14.2418 5.01908 12.3987C5.39207 10.5556 6.31273 8.86254 7.66464 7.53372C9.01654 6.20491 10.739 5.29997 12.6141 4.93335C14.4893 4.56673 16.4329 4.75489 18.1993 5.47404C19.9656 6.19319 21.4754 7.41103 22.5375 8.97356C23.5997 10.5361 24.1667 12.3731 24.1667 14.2523C24.1667 16.7723 23.1482 19.1891 21.3354 20.971C19.5225 22.7528 17.0638 23.7539 14.5 23.7539Z" fill="#FE6E0D"/>
</svg>
