<svg width="24" height="30" viewBox="0 0 24 30" fill="none" xmlns="http://www.w3.org/2000/svg">
<path d="M20.3226 10H18.871V7.14286C18.871 3.2 15.6194 0 11.6129 0C7.60645 0 4.35484 3.2 4.35484 7.14286V10H2.90323C1.30645 10 0 11.2857 0 12.8571V27.1429C0 28.7143 1.30645 30 2.90323 30H20.3226C21.9194 30 23.2258 28.7143 23.2258 27.1429V12.8571C23.2258 11.2857 21.9194 10 20.3226 10ZM11.6129 22.8571C10.0161 22.8571 8.70968 21.5714 8.70968 20C8.70968 18.4286 10.0161 17.1429 11.6129 17.1429C13.2097 17.1429 14.5161 18.4286 14.5161 20C14.5161 21.5714 13.2097 22.8571 11.6129 22.8571ZM16.1129 10H7.1129V7.14286C7.1129 4.7 9.13065 2.71429 11.6129 2.71429C14.0952 2.71429 16.1129 4.7 16.1129 7.14286V10Z" fill="#FF671F"/>
</svg>
