<svg width="190" height="190" viewBox="0 0 190 190" fill="none" xmlns="http://www.w3.org/2000/svg">
<g clip-path="url(#clip0)">
<path d="M189.955 176.525L175.028 94.286C174.879 93.4651 174.37 92.7541 173.641 92.3485L136.07 71.4522C135.583 71.1805 135.036 71.0725 134.499 71.1141L141.334 159.289L141.105 159.392L186.069 179.563C186.434 179.727 186.823 179.808 187.21 179.808C187.823 179.808 188.43 179.606 188.929 179.215C189.745 178.579 190.139 177.543 189.955 176.525Z" fill="#44C868"/>
<path d="M95.0001 91.4288L56.5752 71.4153C56.1146 71.1752 55.604 71.0772 55.1012 71.111C55.2344 71.1028 55.3684 71.1035 55.5012 71.1139L48.666 159.289L93.8583 179.563C94.2231 179.727 94.6123 179.808 95.0001 179.808V91.4288Z" fill="#44C868"/>
<path d="M55.5008 71.1141C54.9639 71.0725 54.4172 71.1805 53.9296 71.4518L16.3589 92.3481C15.6293 92.7537 15.1202 93.4644 14.9714 94.2856L0.044857 176.524C-0.139948 177.542 0.254896 178.578 1.07019 179.215C1.57006 179.606 2.17679 179.808 2.7891 179.808C3.17615 179.808 3.56543 179.727 3.93096 179.563L48.6493 159.501L55.5008 71.1141Z" fill="#4CE166"/>
<path d="M134.499 71.1123C134.129 71.1409 133.764 71.2392 133.425 71.4159L95 91.429V179.808C95 179.808 95 179.808 95.0004 179.808C95.3882 179.808 95.7778 179.727 96.1422 179.564L141.334 159.289L134.499 71.1123Z" fill="#4CE166"/>
<path d="M10.4482 119.208L7.41602 135.914L52.3162 112.199L53.3586 98.7508L53.5316 96.5205L10.4482 119.208Z" fill="#FFDB56"/>
<path d="M52.7199 106.984L52.3157 112.199L7.41554 135.914L0.044857 176.524C-0.139948 177.542 0.254896 178.578 1.07019 179.215C1.57006 179.606 2.17679 179.808 2.7891 179.808C3.17615 179.808 3.56543 179.727 3.93096 179.563L48.6493 159.501L52.7199 106.984Z" fill="#A8EEFC"/>
<path d="M95.011 102.452L53.5308 96.5205L52.3154 112.199L94.9998 177.021V153.45L69.529 113.343L95.011 116.391V102.452Z" fill="#FFBB24"/>
<path d="M170.683 90.7035L152.635 80.665L135.549 84.6573L135.763 87.4167L136.606 98.3024L170.683 90.7035Z" fill="#FFBB24"/>
<path d="M138.122 117.851L136.505 96.9772L135.55 84.6572L95.0117 102.452V116.391L121.492 104.876L138.122 117.851Z" fill="#FFDB56"/>
<path d="M189.955 176.524L186.206 155.866L136.606 98.3018L138.122 117.85L188.988 179.163C189.761 178.522 190.135 177.516 189.955 176.524Z" fill="#FFBB24"/>
<path d="M95.1784 10.1924C73.6686 10.1924 56.1689 27.6776 56.1689 49.1699C56.1689 62.4647 62.4809 76.7385 74.93 91.5942C84.0734 102.505 93.0925 109.523 93.4721 109.817C93.9746 110.205 94.5765 110.399 95.1788 110.399C95.7807 110.399 96.383 110.205 96.8854 109.817C97.2647 109.523 106.284 102.505 115.428 91.5942C127.877 76.7385 134.189 62.4651 134.189 49.1699C134.188 27.6776 116.688 10.1924 95.1784 10.1924ZM109.625 49.1695C109.625 57.1414 103.157 63.6044 95.1784 63.6044C87.1999 63.6044 80.7317 57.1418 80.7317 49.1695C80.7317 41.1973 87.1999 34.7347 95.1784 34.7347C103.157 34.7347 109.625 41.1977 109.625 49.1695Z" fill="#FE6E0D"/>
<path d="M95.1791 10.1924C93.4743 10.1924 91.7951 10.303 90.1475 10.516C109.29 12.9901 124.126 29.3809 124.126 49.1699C124.126 62.4647 117.814 76.7385 105.365 91.5942C99.4846 98.6108 93.6602 104.014 90.1478 107.057C92.0976 108.747 93.3378 109.712 93.4728 109.817C93.9753 110.205 94.5772 110.399 95.1795 110.399C95.7814 110.399 96.3837 110.205 96.8862 109.817C97.2654 109.523 106.285 102.505 115.428 91.5942C127.877 76.7385 134.189 62.4651 134.189 49.1699C134.189 27.6776 116.689 10.1924 95.1791 10.1924Z" fill="#E35F07"/>
<path d="M96.1422 179.563L112.947 172.024L95 153.45V179.808C95 179.808 95 179.808 95.0004 179.808C95.3882 179.808 95.7774 179.727 96.1422 179.563Z" fill="#FFDB56"/>
<path d="M175.028 94.2857C174.879 93.4648 174.37 92.7538 173.641 92.3482L170.683 90.7031L136.606 98.302L186.205 155.867L175.028 94.2857Z" fill="#1EA4E9"/>
<path d="M94.9995 179.808C94.9999 179.808 94.9999 179.808 94.9995 179.808V177.022L52.3155 112.199L48.665 159.289L93.8573 179.564C94.2221 179.727 94.6114 179.808 94.9995 179.808Z" fill="#1EA4E9"/>
</g>
<defs>
<clipPath id="clip0">
<rect width="190" height="190" fill="white"/>
</clipPath>
</defs>
</svg>
