<svg width="63" height="80" viewBox="0 0 63 80" fill="none" xmlns="http://www.w3.org/2000/svg">
<path d="M31.7375 0C14.599 0 0.737549 12.52 0.737549 28C0.737549 49 31.7375 80 31.7375 80C31.7375 80 62.7375 49 62.7375 28C62.7375 12.52 48.8761 0 31.7375 0Z" fill="#F72E96"/>
<path fill-rule="evenodd" clip-rule="evenodd" d="M21.3988 26.2404C23.1098 26.2404 24.3644 25.2143 24.3644 23.547C24.3644 21.8797 23.1098 20.8536 21.3988 20.8536H20.0301V26.2404H21.3988ZM14.7378 28.2496V18.8443C14.7378 17.2411 15.9924 16.0654 17.7033 16.0654H21.2391C25.9156 16.0654 29.6568 18.9511 29.6568 23.547C29.6568 28.1427 25.9156 31.0285 21.2391 31.0285H17.7033C15.9924 31.0285 14.7378 29.8529 14.7378 28.2496Z" fill="white"/>
<path fill-rule="evenodd" clip-rule="evenodd" d="M30.7756 28.0945V17.663C30.7756 16.2949 31.8934 15.333 33.3306 15.333C34.4483 15.333 35.1783 15.8033 35.7941 16.5728L38.851 20.4205C39.3985 21.1045 39.9916 21.874 40.4935 22.6863V18.1119C40.4935 16.4873 41.4059 15.333 43.1395 15.333C44.8734 15.333 45.7858 16.4873 45.7858 18.1119V28.5646C45.7858 29.9327 44.668 30.8946 43.2536 30.8946C42.1131 30.8946 41.4059 30.4244 40.7672 29.6549L37.5279 25.8073C37.0489 25.2301 36.5015 24.4606 36.068 23.8192V28.0945C36.068 29.7404 35.1555 30.8946 33.4218 30.8946C31.6881 30.8946 30.7756 29.7404 30.7756 28.0945Z" fill="white"/>
<path fill-rule="evenodd" clip-rule="evenodd" d="M23.2694 47.5546L21.1706 45.1604C20.6689 44.5833 20.4635 44.3481 20.0301 43.7924V46.1437C20.0301 47.6187 18.9351 48.6661 17.384 48.6661C15.8327 48.6661 14.7378 47.6187 14.7378 46.1437V35.6268C14.7378 34.1519 15.8327 33.1045 17.384 33.1045C18.9351 33.1045 20.0301 34.1519 20.0301 35.6268V37.8928C20.4407 37.3369 20.6689 37.059 21.1706 36.4605L22.9957 34.2801C25.4138 31.3944 29.7024 34.7718 27.1018 37.6148L24.1818 40.8212L27.3299 44.1558C29.8163 46.7851 25.8016 50.4616 23.2694 47.5546Z" fill="white"/>
<path fill-rule="evenodd" clip-rule="evenodd" d="M30.7756 45.8659V35.4345C30.7756 34.0664 31.8934 33.1045 33.3306 33.1045C34.4483 33.1045 35.1783 33.5748 35.7942 34.3443L38.851 38.192C39.3985 38.876 39.9916 39.6455 40.4935 40.4578V35.8834C40.4935 34.2588 41.4059 33.1045 43.1395 33.1045C44.8734 33.1045 45.7858 34.2588 45.7858 35.8834V46.3361C45.7858 47.7042 44.6681 48.6661 43.2536 48.6661C42.1131 48.6661 41.4059 48.1959 40.7672 47.4264L37.5279 43.5787C37.0489 43.0015 36.5015 42.232 36.068 41.5907V45.8659C36.068 47.5119 35.1555 48.6661 33.4218 48.6661C31.6881 48.6661 30.7756 47.5119 30.7756 45.8659Z" fill="white"/>
<path fill-rule="evenodd" clip-rule="evenodd" d="M51.3704 30.9591C52.2878 31.072 53.2522 31.671 53.4448 32.7402C53.5502 33.3258 53.4029 34.0891 53.1213 35.0175C52.8506 35.9093 52.5742 36.7305 51.9674 37.2283C51.4872 37.6224 50.9054 37.7149 50.4315 37.6565L50.409 37.6537C49.9352 37.594 49.3995 37.3623 49.0459 36.8643C48.5989 36.2351 48.5611 35.3747 48.5486 34.4477C48.5356 33.4826 48.6063 32.7098 48.8713 32.1704C49.3555 31.1854 50.4534 30.8434 51.3704 30.9591Z" fill="white"/>
</svg>
