<svg width="46" height="60" viewBox="0 0 96 119" fill="none" xmlns="http://www.w3.org/2000/svg">
<g filter="url(#filter0_d)">
<path d="M48.1069 5C25.6126 5 7.41943 21.4325 7.41943 41.75C7.41943 69.3125 48.1069 110 48.1069 110C48.1069 110 88.7944 69.3125 88.7944 41.75C88.7944 21.4325 70.6013 5 48.1069 5Z" fill="#F72E96"/>
<path fill-rule="evenodd" clip-rule="evenodd" d="M34.5375 39.4396C36.7832 39.4396 38.4299 38.0929 38.4299 35.9045C38.4299 33.7162 36.7832 32.3695 34.5375 32.3695H32.7411V39.4396H34.5375ZM25.7949 42.0766V29.7323C25.7949 27.628 27.4416 26.085 29.6871 26.085H34.3279C40.4658 26.085 45.3761 29.8725 45.3761 35.9045C45.3761 41.9363 40.4658 45.724 34.3279 45.724H29.6871C27.4416 45.724 25.7949 44.181 25.7949 42.0766Z" fill="white"/>
<path fill-rule="evenodd" clip-rule="evenodd" d="M46.8447 41.8734V28.1822C46.8447 26.3865 48.3118 25.124 50.1981 25.124C51.6651 25.124 52.6232 25.7413 53.4315 26.7513L57.4436 31.8014C58.1622 32.6992 58.9407 33.7091 59.5994 34.7752V28.7713C59.5994 26.6391 60.797 25.124 63.0723 25.124C65.348 25.124 66.5456 26.6391 66.5456 28.7713V42.4905C66.5456 44.2861 65.0785 45.5486 63.2221 45.5486C61.7252 45.5486 60.797 44.9315 59.9586 43.9215L55.7071 38.8715C55.0783 38.1139 54.3599 37.1039 53.7909 36.2621V41.8734C53.7909 44.0337 52.5933 45.5486 50.3178 45.5486C48.0423 45.5486 46.8447 44.0337 46.8447 41.8734Z" fill="white"/>
<path fill-rule="evenodd" clip-rule="evenodd" d="M36.9927 67.415L34.238 64.2726C33.5794 63.5151 33.3099 63.2065 32.7411 62.477V65.5632C32.7411 67.4991 31.3039 68.8738 29.268 68.8738C27.232 68.8738 25.7949 67.4991 25.7949 65.5632V51.7598C25.7949 49.8239 27.232 48.4492 29.268 48.4492C31.3039 48.4492 32.7411 49.8239 32.7411 51.7598V54.7339C33.2799 54.0043 33.5794 53.6395 34.238 52.854L36.6334 49.9922C39.8072 46.2047 45.4359 50.6376 42.0227 54.369L38.1902 58.5773L42.322 62.9541C45.5855 66.405 40.3162 71.2305 36.9927 67.415Z" fill="white"/>
<path fill-rule="evenodd" clip-rule="evenodd" d="M46.8447 65.1986V51.5074C46.8447 49.7117 48.3118 48.4492 50.1981 48.4492C51.6651 48.4492 52.6232 49.0665 53.4315 50.0765L57.4436 55.1266C58.1622 56.0244 58.9407 57.0343 59.5994 58.1004V52.0965C59.5994 49.9642 60.797 48.4492 63.0724 48.4492C65.348 48.4492 66.5456 49.9642 66.5456 52.0965V65.8157C66.5456 67.6113 65.0785 68.8738 63.2221 68.8738C61.7252 68.8738 60.797 68.2567 59.9586 67.2467L55.7071 62.1967C55.0784 61.4391 54.3599 60.4291 53.7909 59.5873V65.1986C53.7909 67.3589 52.5934 68.8738 50.3178 68.8738C48.0423 68.8738 46.8447 67.3589 46.8447 65.1986Z" fill="white"/>
<path fill-rule="evenodd" clip-rule="evenodd" d="M73.8755 45.6347C75.0796 45.783 76.3453 46.5691 76.5981 47.9725C76.7365 48.7411 76.5432 49.7429 76.1736 50.9614C75.8182 52.1319 75.4554 53.2097 74.659 53.8632C74.0288 54.3804 73.2652 54.5018 72.6431 54.4252L72.6136 54.4215C71.9918 54.3431 71.2887 54.039 70.8245 53.3854C70.2379 52.5596 70.1883 51.4303 70.1718 50.2136C70.1548 48.9469 70.2476 47.9326 70.5955 47.2247C71.231 45.9318 72.6719 45.483 73.8755 45.6347Z" fill="white"/>
</g>
<defs>
<filter id="filter0_d" x="0.419434" y="0" width="95.375" height="119" filterUnits="userSpaceOnUse" color-interpolation-filters="sRGB">
<feFlood flood-opacity="0" result="BackgroundImageFix"/>
<feColorMatrix in="SourceAlpha" type="matrix" values="0 0 0 0 0 0 0 0 0 0 0 0 0 0 0 0 0 0 127 0"/>
<feOffset dy="2"/>
<feGaussianBlur stdDeviation="3.5"/>
<feColorMatrix type="matrix" values="0 0 0 0 0 0 0 0 0 0 0 0 0 0 0 0 0 0 0.1 0"/>
<feBlend mode="normal" in2="BackgroundImageFix" result="effect1_dropShadow"/>
<feBlend mode="normal" in="SourceGraphic" in2="effect1_dropShadow" result="shape"/>
</filter>
</defs>
</svg>
