<svg width="26" height="31" viewBox="0 0 26 31" fill="none" xmlns="http://www.w3.org/2000/svg">
<path d="M22.75 21.4615V13.5128C22.75 8.63231 20.085 4.54667 15.4375 3.46564V2.38462C15.4375 1.06513 14.3488 0 13 0C11.6512 0 10.5625 1.06513 10.5625 2.38462V3.46564C5.89875 4.54667 3.25 8.61641 3.25 13.5128V21.4615L0 24.641V26.2308H26V24.641L22.75 21.4615ZM14.625 21.4615H11.375V18.2821H14.625V21.4615ZM14.625 15.1026H11.375V8.74359H14.625V15.1026ZM13 31C14.7875 31 16.25 29.5692 16.25 27.8205H9.75C9.75 29.5692 11.1962 31 13 31Z" fill="#FF671F"/>
</svg>
