<svg width="42" height="33" viewBox="0 0 42 33" fill="none" xmlns="http://www.w3.org/2000/svg">
<path d="M32.6772 32.0533H9.46994C8.73759 32.0533 8.14381 31.457 8.14381 30.7214V26.7781C8.14381 24.8996 9.24732 23.1909 10.9552 22.425C15.9224 20.1974 15.6501 20.2727 16.0372 20.2727H17.6134C18.2237 20.2727 18.7553 20.6911 18.9011 21.2864C19.457 23.5553 22.69 23.5564 23.2461 21.2864C23.392 20.6912 23.9235 20.2727 24.5339 20.2727C26.2302 20.2727 26.3173 20.2389 26.6507 20.3884L31.1921 22.425C32.8999 23.1909 34.0035 24.8996 34.0035 26.7781V30.7214C34.0034 31.457 33.4096 32.0533 32.6772 32.0533ZM21.106 0.616211C16.6394 0.616211 13.0057 4.26582 13.0057 8.75186C13.0057 13.2379 16.6394 16.8875 21.106 16.8875C25.5726 16.8875 29.2063 13.2379 29.2063 8.75186C29.2063 4.26582 25.5726 0.616211 21.106 0.616211ZM8.32765 9.31826C5.51534 9.31826 3.22734 11.6162 3.22734 14.4409C3.22734 17.2654 5.51534 19.5634 8.32765 19.5634C11.14 19.5634 13.428 17.2654 13.428 14.4409C13.4279 11.6162 11.14 9.31826 8.32765 9.31826ZM33.8195 9.31826C31.0072 9.31826 28.7192 11.6162 28.7192 14.4409C28.7192 17.2654 31.0072 19.5634 33.8195 19.5634C36.6319 19.5634 38.9198 17.2654 38.9198 14.4409C38.9198 11.6162 36.6319 9.31826 33.8195 9.31826ZM39.714 21.5201C36.9547 20.2824 37.0207 20.2697 36.6432 20.2697C34.6679 20.2697 33.3756 20.2558 32.5015 20.2515C31.6328 20.2472 31.345 21.4175 32.1148 21.8219C32.7451 22.1531 33.1278 22.4355 33.5823 22.9336C34.9087 24.3805 35.0323 25.9118 35.032 27.1814C35.032 27.6411 35.4029 28.0132 35.8606 28.0132H40.3025C41.0352 28.0132 41.6286 27.4164 41.6286 26.6813V24.4844C41.6286 23.2049 40.8769 22.042 39.714 21.5201ZM5.50398 20.2697C5.12819 20.2697 5.20212 20.2781 2.43316 21.5201C1.27031 22.042 0.518555 23.2049 0.518555 24.4844V26.6812C0.518555 27.4163 1.112 28.0131 1.84469 28.0131H6.28623C6.74425 28.0131 7.1154 27.6405 7.11482 27.1806C7.11332 25.9066 7.23326 24.3862 8.56486 22.9336C9.01715 22.4378 9.40306 22.1529 10.0195 21.8277C10.7877 21.4223 10.5038 20.2554 9.63604 20.2569C8.75673 20.2584 7.46467 20.2697 5.50398 20.2697Z" fill="#FF671F"/>
</svg>
