<svg width="26" height="33" viewBox="0 0 26 33" fill="none" xmlns="http://www.w3.org/2000/svg">
<path d="M18 9.04297C17.4823 9.04297 17.0625 8.62322 17.0625 8.10547V0.917969H4.25C2.35456 0.917969 0.8125 2.46003 0.8125 4.35547V29.4805C0.8125 31.3759 2.35456 32.918 4.25 32.918H21.75C23.6454 32.918 25.1875 31.3759 25.1875 29.4805V9.04297H18ZM20.1875 19.8303C20.1875 21.9337 19.5238 23.9375 18.2682 25.625C17.0127 27.3125 15.2841 28.524 13.2694 29.1284C13.1815 29.1548 13.0907 29.168 13 29.168C12.9093 29.168 12.8185 29.1548 12.7306 29.1284C10.7159 28.524 8.98731 27.3125 7.73175 25.625C6.47619 23.9375 5.8125 21.9337 5.8125 19.8303V14.4805C5.8125 13.9627 6.23225 13.543 6.75 13.543C7.93469 13.543 8.99975 12.8847 9.5295 11.8252L9.66144 11.5613C9.82025 11.2436 10.1449 11.043 10.5 11.043H15.5C15.8551 11.043 16.1797 11.2436 16.3386 11.5612L16.4705 11.8252C17.0003 12.8847 18.0653 13.543 19.25 13.543C19.7677 13.543 20.1875 13.9627 20.1875 14.4805V19.8303Z" fill="#FF671F"/>
</svg>
