<svg width="31" height="31" viewBox="0 0 31 31" fill="none" xmlns="http://www.w3.org/2000/svg">
<path d="M24.0391 31H26.3782C27.5618 31 28.5341 30.0978 28.675 28.9418L31 5.70941H23.9545V0H21.1786V5.70941H14.1755L14.5982 9.00819C17.0077 9.67076 19.2623 10.869 20.615 12.1942C22.6441 14.196 24.0391 16.2683 24.0391 19.6517V31ZM0 29.5903V28.1946H21.1786V29.5903C21.1786 30.3656 20.5445 31 19.7555 31H1.42318C0.634091 31 0 30.3656 0 29.5903ZM21.1786 19.7221C21.1786 8.44429 0 8.44429 0 19.7221H21.1786ZM0.0281818 22.5557H21.1645V25.3752H0.0281818V22.5557Z" fill="#FF671F"/>
</svg>
