<svg width="20" height="22" viewBox="0 0 29 32" fill="none" xmlns="http://www.w3.org/2000/svg">
<path d="M8.28613 29.1914C10.2882 29.1914 11.9111 27.4565 11.9111 25.3164C11.9111 23.1763 10.2882 21.4414 8.28613 21.4414C6.2841 21.4414 4.66113 23.1763 4.66113 25.3164C4.66344 27.4555 6.28506 29.1889 8.28613 29.1914ZM10.3576 24.2093C10.6436 24.2093 10.8754 24.4571 10.8754 24.7628C10.8754 25.0686 10.6436 25.3164 10.3576 25.3164C10.0716 25.3164 9.8397 25.0686 9.8397 24.7628C9.8397 24.4571 10.0716 24.2093 10.3576 24.2093ZM6.85493 26.8836C6.93314 26.6867 7.04613 26.5077 7.18771 26.3565C7.32911 26.2045 7.49696 26.0836 7.68179 26.0005C8.06844 25.8275 8.50383 25.8275 8.89047 26.0005C9.07552 26.0837 9.24355 26.2049 9.38508 26.3571C9.52643 26.5082 9.63924 26.6869 9.71733 26.8836C9.7896 27.0658 9.76548 27.2753 9.65406 27.4332C9.54264 27.5912 9.36085 27.6736 9.17717 27.6494C8.99348 27.6253 8.83581 27.4982 8.76354 27.3161C8.68277 27.1106 8.49462 26.977 8.28613 26.977C8.07765 26.977 7.88949 27.1106 7.80872 27.3161C7.69701 27.5976 7.39293 27.7291 7.12955 27.6096C6.86617 27.4902 6.74322 27.1652 6.85493 26.8836ZM6.2147 24.2093C6.50071 24.2093 6.73256 24.4571 6.73256 24.7628C6.73256 25.0686 6.50071 25.3164 6.2147 25.3164C5.9287 25.3164 5.69685 25.0686 5.69685 24.7628C5.69685 24.4571 5.9287 24.2093 6.2147 24.2093Z" fill="#FF671F"/>
<path d="M2.58915 4.27999C2.87515 4.27999 3.107 4.03215 3.107 3.72642C3.107 3.42069 2.87515 3.17285 2.58915 3.17285C2.30314 3.17285 2.07129 3.42069 2.07129 3.72642C2.07129 4.03215 2.30314 4.27999 2.58915 4.27999Z" fill="#FF671F"/>
<path d="M0 30.298C0.000941832 31.2148 0.695948 31.9577 1.55357 31.9587H27.4464C28.3041 31.9577 28.9991 31.2148 29 30.298V7.60156H0V30.298ZM25.7411 9.97804C25.8383 10.0818 25.8929 10.2226 25.8929 10.3694C25.8929 10.5162 25.8383 10.657 25.7411 10.7608L20.5626 16.2965C20.4655 16.4004 20.3338 16.4587 20.1964 16.4587C20.0591 16.4587 19.9274 16.4004 19.8303 16.2965L18.2767 14.6358C18.0805 14.4186 18.0833 14.0733 18.283 13.8598C18.4828 13.6463 18.8058 13.6433 19.009 13.853L20.1964 15.1223L25.0089 9.97804C25.1059 9.87418 25.2377 9.81583 25.375 9.81583C25.5123 9.81583 25.6441 9.87418 25.7411 9.97804ZM16.0536 11.4766C16.0545 10.5598 16.7495 9.81686 17.6071 9.81585H22.7857C23.0717 9.81585 23.3036 10.0637 23.3036 10.3694C23.3036 10.6751 23.0717 10.923 22.7857 10.923H17.6071C17.3212 10.9233 17.0895 11.1709 17.0893 11.4766V17.0123C17.0895 17.3179 17.3212 17.5656 17.6071 17.5659H22.7857C23.0716 17.5656 23.3033 17.3179 23.3036 17.0123V14.798C23.3036 14.4923 23.5354 14.2444 23.8214 14.2444C24.1074 14.2444 24.3393 14.4923 24.3393 14.798V17.0123C24.3383 17.929 23.6433 18.672 22.7857 18.673H17.6071C16.7495 18.672 16.0545 17.929 16.0536 17.0123V11.4766ZM16.0536 22.548C16.0545 21.6312 16.7495 20.8883 17.6071 20.8873H22.7857C23.6433 20.8883 24.3383 21.6312 24.3393 22.548V28.0837C24.3383 29.0005 23.6433 29.7434 22.7857 29.7444H17.6071C16.7495 29.7434 16.0545 29.0005 16.0536 28.0837V22.548ZM8.28571 9.26228C10.8598 9.26228 12.9464 11.4929 12.9464 14.2444C12.9464 16.996 10.8598 19.2266 8.28571 19.2266C5.71167 19.2266 3.625 16.996 3.625 14.2444C3.62785 11.4941 5.71286 9.26533 8.28571 9.26228ZM8.28571 20.3337C10.8598 20.3337 12.9464 22.5643 12.9464 25.3159C12.9464 28.0674 10.8598 30.298 8.28571 30.298C5.71167 30.298 3.625 28.0674 3.625 25.3159C3.62785 22.5656 5.71286 20.3368 8.28571 20.3337Z" fill="#FF671F"/>
<path d="M8.28613 18.1201C10.2882 18.1201 11.9111 16.3852 11.9111 14.2451C11.9111 12.105 10.2882 10.3701 8.28613 10.3701C6.2841 10.3701 4.66113 12.105 4.66113 14.2451C4.66344 16.3842 6.28506 18.1176 8.28613 18.1201ZM10.3576 13.138C10.6436 13.138 10.8754 13.3858 10.8754 13.6915C10.8754 13.9973 10.6436 14.2451 10.3576 14.2451C10.0716 14.2451 9.8397 13.9973 9.8397 13.6915C9.8397 13.3858 10.0716 13.138 10.3576 13.138ZM7.12955 14.72C7.39289 14.6014 7.69643 14.7325 7.80872 15.0134C7.88949 15.2189 8.07765 15.3525 8.28613 15.3525C8.49462 15.3525 8.68277 15.2189 8.76354 15.0134C8.87526 14.7319 9.17933 14.6004 9.44271 14.7199C9.7061 14.8393 9.82905 15.1643 9.71733 15.4459C9.63912 15.6428 9.52613 15.8218 9.38456 15.973C9.09332 16.2848 8.69799 16.46 8.28577 16.4599C7.87354 16.4598 7.47829 16.2844 7.18719 15.9724C7.04583 15.8213 6.93303 15.6426 6.85493 15.4459C6.80129 15.3107 6.80009 15.1583 6.85159 15.0221C6.90309 14.886 7.00308 14.7773 7.12955 14.72ZM6.2147 13.138C6.50071 13.138 6.73256 13.3858 6.73256 13.6915C6.73256 13.9973 6.50071 14.2451 6.2147 14.2451C5.9287 14.2451 5.69685 13.9973 5.69685 13.6915C5.69685 13.3858 5.9287 13.138 6.2147 13.138Z" fill="#FF671F"/>
<path d="M22.7863 21.9951H17.6077C17.3217 21.9951 17.0898 22.243 17.0898 22.5487V28.0844C17.0898 28.3901 17.3217 28.638 17.6077 28.638H22.7863C23.0723 28.638 23.3041 28.3901 23.3041 28.0844V22.5487C23.3041 22.243 23.0723 21.9951 22.7863 21.9951Z" fill="#FF671F"/>
<path d="M6.73172 4.27999C7.01773 4.27999 7.24958 4.03215 7.24958 3.72642C7.24958 3.42069 7.01773 3.17285 6.73172 3.17285C6.44572 3.17285 6.21387 3.42069 6.21387 3.72642C6.21387 4.03215 6.44572 4.27999 6.73172 4.27999Z" fill="#FF671F"/>
<path d="M10.8753 4.27999C11.1613 4.27999 11.3931 4.03215 11.3931 3.72642C11.3931 3.42069 11.1613 3.17285 10.8753 3.17285C10.5893 3.17285 10.3574 3.42069 10.3574 3.72642C10.3574 4.03215 10.5893 4.27999 10.8753 4.27999Z" fill="#FF671F"/>
<path d="M27.4464 0.958984H1.55357C0.695948 0.959991 0.000941832 1.70293 0 2.6197V6.4947H29V2.6197C28.9991 1.70293 28.3041 0.959991 27.4464 0.958984ZM2.58929 5.38756C1.73127 5.38756 1.03571 4.64403 1.03571 3.72684C1.03571 2.80965 1.73127 2.06613 2.58929 2.06613C3.4473 2.06613 4.14286 2.80965 4.14286 3.72684C4.14192 4.64361 3.44691 5.38655 2.58929 5.38756ZM6.73214 5.38756C5.87413 5.38756 5.17857 4.64403 5.17857 3.72684C5.17857 2.80965 5.87413 2.06613 6.73214 2.06613C7.59016 2.06613 8.28571 2.80965 8.28571 3.72684C8.28477 4.64361 7.58977 5.38655 6.73214 5.38756ZM10.875 5.38756C10.017 5.38756 9.32143 4.64403 9.32143 3.72684C9.32143 2.80965 10.017 2.06613 10.875 2.06613C11.733 2.06613 12.4286 2.80965 12.4286 3.72684C12.4276 4.64361 11.7326 5.38655 10.875 5.38756Z" fill="#FF671F"/>
</svg>
