<svg width="29" height="31" viewBox="0 0 29 31" fill="none" xmlns="http://www.w3.org/2000/svg">
<path d="M21.443 14.1306C21.4929 14.1306 21.5425 14.1313 21.5924 14.1322L21.6052 14.1324C21.8852 14.1375 22.1628 14.1556 22.4377 14.1855V3.97812C22.4377 2.02645 20.8497 0.438477 18.898 0.438477H3.53988C1.58798 0.438477 0 2.02645 0 3.97812V24.3378C0 26.2897 1.58798 27.8777 3.53965 27.8777H13.7935C12.9087 26.4556 12.4445 24.8315 12.4445 23.1341C12.4445 18.1694 16.4811 14.1306 21.443 14.1306ZM12.6947 6.21796H17.9402C18.4256 6.21796 18.8191 6.6114 18.8191 7.09686C18.8191 7.58232 18.4256 7.97576 17.9402 7.97576H12.6947C12.2094 7.97576 11.8158 7.58232 11.8158 7.09686C11.8158 6.6114 12.2094 6.21796 12.6947 6.21796ZM12.6947 9.7338H17.9402C18.4256 9.7338 18.8191 10.1272 18.8191 10.6127C18.8191 11.0982 18.4256 11.4916 17.9402 11.4916H12.6947C12.2094 11.4916 11.8158 11.0982 11.8158 10.6127C11.8158 10.1272 12.2094 9.7338 12.6947 9.7338ZM9.74302 22.098H4.49752C4.01206 22.098 3.61861 21.7045 3.61861 21.2191C3.61861 20.7338 4.01206 20.3402 4.49752 20.3402H9.74302C10.2282 20.3402 10.6219 20.7338 10.6219 21.2191C10.6219 21.7045 10.2282 22.098 9.74302 22.098ZM9.74302 18.5233H4.49752C4.01206 18.5233 3.61861 18.1299 3.61861 17.6444C3.61861 17.1589 4.01206 16.7655 4.49752 16.7655H9.74302C10.2282 16.7655 10.6219 17.1589 10.6219 17.6444C10.6219 18.1299 10.2282 18.5233 9.74302 18.5233ZM9.74302 15.0075H4.49752C4.01206 15.0075 3.61861 14.614 3.61861 14.1285C3.61861 13.6431 4.01206 13.2496 4.49752 13.2496H9.74302C10.2282 13.2496 10.6219 13.6431 10.6219 14.1285C10.6219 14.614 10.2282 15.0075 9.74302 15.0075ZM9.74302 11.4916H4.49752C4.01206 11.4916 3.61861 11.0982 3.61861 10.6127C3.61861 10.1272 4.01206 9.7338 4.49752 9.7338H9.74302C10.2282 9.7338 10.6219 10.1272 10.6219 10.6127C10.6219 11.0982 10.2282 11.4916 9.74302 11.4916ZM9.74302 7.97576H4.49752C4.01206 7.97576 3.61861 7.58232 3.61861 7.09686C3.61861 6.6114 4.01206 6.21796 4.49752 6.21796H9.74302C10.2282 6.21796 10.6219 6.6114 10.6219 7.09686C10.6219 7.58232 10.2282 7.97576 9.74302 7.97576ZM11.8158 14.1285C11.8158 13.6431 12.2094 13.2496 12.6947 13.2496H15.2211C15.7065 13.2496 16.1 13.6431 16.1 14.1285C16.1 14.614 15.7065 15.0075 15.2211 15.0075H12.6947C12.2094 15.0075 11.8158 14.614 11.8158 14.1285Z" fill="#FF671F"/>
<path d="M26.6473 18.0134C25.2983 16.6405 23.4966 15.8656 21.5742 15.8317L21.5616 15.8315C21.522 15.8308 21.4824 15.8301 21.4428 15.8301C17.4179 15.8301 14.1436 19.1067 14.1436 23.1344C14.1436 24.734 14.6512 26.2531 15.6114 27.5277C17.005 29.3778 19.1304 30.4387 21.4428 30.4387C25.4677 30.4387 28.7421 27.162 28.7421 23.1344C28.7421 21.2063 27.9982 19.3876 26.6473 18.0134ZM24.5615 21.9469L21.7742 25.4216C21.601 25.6374 21.346 25.7507 21.088 25.7507C20.9088 25.7507 20.7285 25.696 20.5728 25.5834L18.4939 24.0771C18.1009 23.7924 18.013 23.2429 18.298 22.8496C18.5827 22.4566 19.1323 22.3688 19.5252 22.6537L20.9267 23.669L23.1905 20.8469C23.4943 20.4684 24.0472 20.4077 24.426 20.7114C24.8046 21.0152 24.8653 21.5684 24.5615 21.9469Z" fill="#FF671F"/>
</svg>
