<svg width="20" height="41" viewBox="0 0 20 41" fill="none" xmlns="http://www.w3.org/2000/svg">
<path d="M0.143555 35.3125H9.88713V40.1843H0.143555V35.3125Z" fill="#FF671F"/>
<path d="M12.323 20.0878C12.2146 19.9034 12.0378 19.7693 11.831 19.7146C11.6242 19.6599 11.4042 19.6889 11.2188 19.7955C11.1256 19.8487 11.0439 19.9199 10.9784 20.0049C10.9129 20.0899 10.8649 20.1871 10.8371 20.2908L9.90337 23.7822C9.7664 24.2975 9.46271 24.753 9.0397 25.0776C8.61668 25.4022 8.09812 25.5777 7.56492 25.5767H7.53244C7.11746 25.5747 6.71006 25.4653 6.35002 25.2589C5.98997 25.0526 5.68958 24.7564 5.47816 24.3993L3.50509 21.1108C3.43072 20.9855 3.39146 20.8425 3.39141 20.6967V14.2822C2.47504 14.4707 1.65165 14.9693 1.06003 15.694C0.468414 16.4188 0.144736 17.3253 0.143555 18.2609V27.6228C0.144238 27.7473 0.174872 27.8699 0.232871 27.9801L1.67817 30.8869C1.73613 31 1.76672 31.1252 1.76748 31.2523V33.6882H8.2632V32.8762C8.26225 32.7004 8.31933 32.5291 8.4256 32.389L10.6991 29.3604V27.8339C10.6989 27.3376 10.7644 26.8434 10.894 26.3643L12.4042 20.7049C12.4331 20.6019 12.4408 20.4941 12.4269 20.388C12.4129 20.2819 12.3776 20.1798 12.323 20.0878Z" fill="#FF671F"/>
<path d="M17.1951 0.397461H7.45152C6.80607 0.399389 6.18761 0.656645 5.73121 1.11305C5.27481 1.56945 5.01755 2.18791 5.01562 2.83336V20.4692L6.87502 23.5628C6.9429 23.6815 7.04102 23.7802 7.15941 23.8486C7.27779 23.9171 7.4122 23.9529 7.54896 23.9526C7.72561 23.9481 7.89646 23.8886 8.03766 23.7823C8.17885 23.676 8.28335 23.5283 8.33656 23.3598L9.27032 19.8684C9.39605 19.4036 9.65637 18.9864 10.0186 18.6692C10.3808 18.352 10.8287 18.149 11.3059 18.0856C11.7832 18.0223 12.2686 18.1014 12.701 18.3132C13.1334 18.5249 13.4935 18.8598 13.7361 19.2756C14.0573 19.8368 14.1448 20.5018 13.9797 21.1269L13.8742 21.5085H14.7592V23.1325H13.4357L13.0054 24.7564H17.1951C17.8405 24.7545 18.459 24.4972 18.9154 24.0408C19.3718 23.5844 19.6291 22.966 19.631 22.3205V2.83336C19.6291 2.18791 19.3718 1.56945 18.9154 1.11305C18.459 0.656645 17.8405 0.399389 17.1951 0.397461ZM9.88741 2.02139H14.7592V3.64532H9.88741V2.02139ZM8.26348 6.89318H9.88741V8.51711H8.26348V6.89318ZM16.3831 15.0128H8.26348V13.3889H16.3831V15.0128ZM16.3831 11.765H8.26348V10.141H16.3831V11.765ZM16.3831 8.51711H11.5113V6.89318H16.3831V8.51711Z" fill="#FF671F"/>
</svg>
