<svg width="320" height="169" viewBox="0 0 320 169" fill="none" xmlns="http://www.w3.org/2000/svg">
<path fill-rule="evenodd" clip-rule="evenodd" d="M11.4217 0H86.8127C93.0937 0 98.2344 5.1302 98.2344 11.409V64.6912H90.2866V18.0932H7.94784V147.801H90.2866V114.407H98.2344V157.506C98.2344 163.79 93.0937 168.915 86.8127 168.915H11.4217C5.14073 168.915 0 163.78 0 157.501V11.409C0 5.1302 5.14073 0 11.4217 0ZM61.1767 8.22376H37.0577C36.2944 8.22376 35.6759 8.84151 35.6759 9.60886C35.6759 10.3714 36.2944 10.9891 37.0577 10.9891H61.1767C61.94 10.9891 62.5585 10.3714 62.5585 9.60886C62.5585 8.84151 61.94 8.22376 61.1767 8.22376ZM43.4064 157.501C43.4064 160.658 45.9622 163.211 49.1172 163.211C52.2722 163.211 54.828 160.658 54.828 157.501C54.828 154.345 52.2722 151.797 49.1172 151.797C45.9622 151.797 43.4064 154.345 43.4064 157.501Z" fill="#603719"/>
<path d="M36.7425 45.4469L37.2257 45.7091C37.8753 46.0622 37.945 46.629 37.945 46.8568C37.9459 47.0838 37.8753 47.6506 37.2284 48.0029L36.9863 48.1344C35.8534 48.7474 35.4894 50.0712 36.1721 51.0897C36.6214 51.7598 37.413 52.1309 38.2245 52.1309C38.646 52.1309 39.0718 52.0314 39.4593 51.8216L39.7031 51.6893C41.6022 50.6568 42.7351 48.8507 42.7342 46.856C42.7342 44.8621 41.6014 43.0561 39.7031 42.0243L39.2198 41.762C38.5702 41.409 38.4997 40.8422 38.4997 40.6144C38.4997 40.3873 38.5702 39.8206 39.2215 39.4659L39.4636 39.3344C40.5939 38.7191 40.9561 37.3953 40.2708 36.3784C39.5855 35.3614 38.1131 35.0358 36.9819 35.6519L36.7425 35.7826C34.8442 36.8136 33.7104 38.6197 33.7104 40.6144C33.7104 42.6091 34.8433 44.4151 36.7425 45.4469Z" fill="#FF671F"/>
<path d="M47.8734 45.4461L48.3567 45.7091C49.0063 46.0622 49.0768 46.629 49.0768 46.856C49.0768 47.0838 49.0063 47.6506 48.3576 48.0037L48.1164 48.1344C46.9844 48.749 46.6204 50.0727 47.304 51.0897C47.7541 51.7598 48.5448 52.1309 49.3564 52.1309C49.7778 52.1309 50.2045 52.0307 50.592 51.8201L50.8341 51.6885C52.7323 50.6568 53.8661 48.8499 53.8661 46.856C53.8661 44.8621 52.7323 43.0553 50.8341 42.0243L50.3516 41.7612C49.7012 41.4082 49.6315 40.8414 49.6315 40.6144C49.6315 40.3866 49.7012 39.8198 50.3534 39.4659L50.5946 39.3344C51.7257 38.7183 52.0871 37.3945 51.4027 36.3776C50.7174 35.3614 49.2449 35.0342 48.1129 35.6519L47.8734 35.7818C45.9752 36.8136 44.8423 38.6197 44.8423 40.6136C44.8414 42.6083 45.9752 44.4151 47.8734 45.4461Z" fill="#FF671F"/>
<path d="M59.0023 45.4461L59.4856 45.7091C60.1352 46.0622 60.2057 46.629 60.2057 46.856C60.2057 47.0838 60.1352 47.6506 59.4865 48.0037L59.2444 48.1344C58.1133 48.749 57.7493 50.0727 58.4329 51.0897C58.8822 51.7598 59.6737 52.1309 60.4853 52.1309C60.9067 52.1309 61.3334 52.0307 61.7209 51.8201L61.963 51.6885C63.8612 50.6568 64.995 48.8499 64.995 46.856C64.995 44.8621 63.8612 43.0553 61.963 42.0243L61.4806 41.7612C60.831 41.4082 60.7604 40.8414 60.7604 40.6144C60.7604 40.3866 60.831 39.8198 61.4823 39.4659L61.7235 39.3344C62.8546 38.7183 63.216 37.3945 62.5316 36.3776C61.8454 35.3607 60.3721 35.0342 59.2418 35.6519L59.0023 35.7818C57.1041 36.8136 55.9712 38.6197 55.9712 40.6136C55.9712 42.6083 57.1041 44.4151 59.0023 45.4461Z" fill="#FF671F"/>
<path d="M61.6562 126.129L61.6205 126.59H61.1577H37.551H37.0882L37.0525 126.129L33.2572 77.1704L33.2154 76.6317H33.7557H64.952H65.4923L65.4505 77.1704L61.6562 126.129ZM34.5 63.5208L34.5636 63.0317L35.0535 63.0886L64.1806 66.4705L64.5369 66.5119L64.6119 66.8626L65.1853 69.5429L65.3146 70.1475H64.6963H34.2081H33.6389L33.7123 69.583L34.5 63.5208ZM72.6524 70.2098L72.3216 70.1508L72.2513 69.8222L70.7791 62.9376L70.779 62.9373C70.4903 61.5834 69.3139 60.5328 67.8322 60.3613L67.832 60.3613L31.9936 56.2L31.993 56.2C30.0902 55.9767 28.3951 57.2664 28.1666 59.0226L27.6708 58.9581L28.1666 59.0226L26.7701 69.7522L26.719 70.1446L26.3255 70.1851C24.5811 70.3647 23.2612 71.7435 23.2612 73.3896C23.2612 74.9235 24.3997 76.2315 25.9602 76.5531L26.3287 76.6291L26.3577 77.0042L30.2779 127.575L30.2779 127.575C30.5148 130.636 33.2413 133.074 36.5242 133.074H62.1825C65.4654 133.074 68.192 130.637 68.4298 127.574L72.35 77.0042L72.379 76.6293L72.7473 76.5532C74.3079 76.2307 75.4455 74.9227 75.4455 73.3896C75.4455 71.8258 74.2606 70.497 72.6524 70.2098Z" fill="#FF671F" stroke="white"/>
<mask id="path-6-inside-1" fill="white">
<path d="M42.3405 90.3486H43.1159C44.0858 90.3486 44.7964 90.9689 44.7964 91.977C44.7964 92.985 44.0858 93.6054 43.1159 93.6054H42.3405V90.3486ZM41.0223 96.5H43.0256C45.6749 96.5 47.7941 94.7547 47.7941 91.977C47.7941 89.1982 45.6749 87.4529 43.0256 87.4529H41.0223C40.0524 87.4529 39.3418 88.1635 39.3418 89.1334V94.8206C39.3418 95.7894 40.0524 96.5 41.0223 96.5Z"/>
</mask>
<path d="M42.3405 90.3486H43.1159C44.0858 90.3486 44.7964 90.9689 44.7964 91.977C44.7964 92.985 44.0858 93.6054 43.1159 93.6054H42.3405V90.3486ZM41.0223 96.5H43.0256C45.6749 96.5 47.7941 94.7547 47.7941 91.977C47.7941 89.1982 45.6749 87.4529 43.0256 87.4529H41.0223C40.0524 87.4529 39.3418 88.1635 39.3418 89.1334V94.8206C39.3418 95.7894 40.0524 96.5 41.0223 96.5Z" fill="#FF671F"/>
<path d="M42.3405 90.3486H34.3405V82.3486H42.3405V90.3486ZM42.3405 93.6054V101.605H34.3405V93.6054H42.3405ZM42.3405 82.3486H43.1159V98.3486H42.3405V82.3486ZM43.1159 82.3486C45.3026 82.3486 47.7906 83.0668 49.8006 84.9571C51.8705 86.9037 52.7964 89.5008 52.7964 91.977H36.7964C36.7964 93.4451 37.367 95.2279 38.8391 96.6124C40.2513 97.9405 41.8991 98.3486 43.1159 98.3486V82.3486ZM52.7964 91.977C52.7964 94.4532 51.8705 97.0502 49.8006 98.9969C47.7906 100.887 45.3026 101.605 43.1159 101.605V85.6054C41.8991 85.6054 40.2513 86.0134 38.8391 87.3416C37.367 88.726 36.7964 90.5089 36.7964 91.977H52.7964ZM43.1159 101.605H42.3405V85.6054H43.1159V101.605ZM34.3405 93.6054V90.3486H50.3405V93.6054H34.3405ZM41.0223 88.5H43.0256V104.5H41.0223V88.5ZM43.0256 88.5C42.6112 88.5 41.8074 88.6458 41.0187 89.3636C40.1499 90.1542 39.7941 91.2013 39.7941 91.977H55.7941C55.7941 95.5305 54.3786 98.839 51.7879 101.197C49.2773 103.482 46.0894 104.5 43.0256 104.5V88.5ZM39.7941 91.977C39.7941 92.7513 40.1493 93.7981 41.0182 94.589C41.8071 95.3071 42.6111 95.4529 43.0256 95.4529V79.4529C46.0894 79.4529 49.2777 80.4713 51.7884 82.7567C54.3793 85.115 55.7941 88.4239 55.7941 91.977H39.7941ZM43.0256 95.4529H41.0223V79.4529H43.0256V95.4529ZM41.0223 95.4529C42.5451 95.4529 44.1951 94.8664 45.4752 93.5863C46.7553 92.3062 47.3418 90.6562 47.3418 89.1334H31.3418C31.3418 83.7453 35.6342 79.4529 41.0223 79.4529V95.4529ZM47.3418 89.1334V94.8206H31.3418V89.1334H47.3418ZM47.3418 94.8206C47.3418 93.2949 46.7537 91.6447 45.4739 90.3655C44.1942 89.0863 42.545 88.5 41.0223 88.5V104.5C35.6375 104.5 31.3418 100.211 31.3418 94.8206H47.3418Z" fill="#FF671F" mask="url(#path-6-inside-1)"/>
<mask id="path-8-inside-2" fill="white">
<path d="M50.0458 96.6807C51.0273 96.6807 51.5446 95.9828 51.5446 94.9875V92.403C51.791 92.7907 52.1012 93.2549 52.3721 93.6044L54.2066 95.9307C54.5688 96.396 54.9703 96.6807 55.6162 96.6807C56.4171 96.6807 57.0502 96.0986 57.0502 95.2721V88.9518C57.0502 87.9692 56.534 87.2724 55.5514 87.2724C54.5688 87.2724 54.0515 87.9692 54.0515 88.9518V91.7179C53.7679 91.2261 53.4322 90.7619 53.122 90.3476L51.3895 88.0213C51.0411 87.556 50.6268 87.2724 49.9937 87.2724C49.1801 87.2724 48.5459 87.8524 48.5459 88.6809V94.9875C48.5459 95.9828 49.0632 96.6807 50.0458 96.6807Z"/>
</mask>
<path d="M50.0458 96.6807C51.0273 96.6807 51.5446 95.9828 51.5446 94.9875V92.403C51.791 92.7907 52.1012 93.2549 52.3721 93.6044L54.2066 95.9307C54.5688 96.396 54.9703 96.6807 55.6162 96.6807C56.4171 96.6807 57.0502 96.0986 57.0502 95.2721V88.9518C57.0502 87.9692 56.534 87.2724 55.5514 87.2724C54.5688 87.2724 54.0515 87.9692 54.0515 88.9518V91.7179C53.7679 91.2261 53.4322 90.7619 53.122 90.3476L51.3895 88.0213C51.0411 87.556 50.6268 87.2724 49.9937 87.2724C49.1801 87.2724 48.5459 87.8524 48.5459 88.6809V94.9875C48.5459 95.9828 49.0632 96.6807 50.0458 96.6807Z" fill="#FF671F"/>
<path d="M51.5446 92.403H43.5446V64.9033L58.2962 88.1116L51.5446 92.403ZM52.3721 93.6044L46.0903 98.5581L46.0695 98.5318L46.049 98.5053L52.3721 93.6044ZM54.2066 95.9307L60.4884 90.977L60.5038 90.9966L60.5191 91.0162L54.2066 95.9307ZM54.0515 91.7179H62.0515V121.605L47.1213 95.7144L54.0515 91.7179ZM53.122 90.3476L46.7181 95.1423L46.712 95.1342L46.7059 95.126L53.122 90.3476ZM51.3895 88.0213L57.793 83.226L57.7994 83.2344L57.8057 83.2429L51.3895 88.0213ZM50.0458 88.6807C48.4871 88.6807 46.5036 89.3232 45.0472 91.0504C43.7485 92.5906 43.5446 94.1904 43.5446 94.9875H59.5446C59.5446 96.7798 59.0821 99.2262 57.2793 101.364C55.3189 103.689 52.5859 104.681 50.0458 104.681V88.6807ZM43.5446 94.9875V92.403H59.5446V94.9875H43.5446ZM58.2962 88.1116C58.3822 88.2469 58.4723 88.3844 58.5553 88.5059C58.596 88.5656 58.6303 88.6144 58.6573 88.6519C58.6852 88.6907 58.6977 88.7067 58.6952 88.7035L46.049 98.5053C45.5503 97.8618 45.084 97.1522 44.793 96.6944L58.2962 88.1116ZM58.6539 88.6507L60.4884 90.977L47.9248 100.884L46.0903 98.5581L58.6539 88.6507ZM60.5191 91.0162C60.3283 90.7711 59.7692 90.1026 58.7733 89.5337C57.6829 88.9109 56.5551 88.6807 55.6162 88.6807V104.681C54.0314 104.681 52.3799 104.308 50.8368 103.427C49.3881 102.599 48.4471 101.556 47.8941 100.845L60.5191 91.0162ZM55.6162 88.6807C54.0558 88.6807 52.3931 89.2635 51.0843 90.5239C49.745 91.8136 49.0502 93.5558 49.0502 95.2721H65.0502C65.0502 100.798 60.5484 104.681 55.6162 104.681V88.6807ZM49.0502 95.2721V88.9518H65.0502V95.2721H49.0502ZM49.0502 88.9518C49.0502 89.7737 49.2639 91.3802 50.5678 92.9178C52.025 94.6362 54.0014 95.2724 55.5514 95.2724V79.2724C58.0839 79.2724 60.8098 80.257 62.7708 82.5695C64.5784 84.7011 65.0502 87.1473 65.0502 88.9518H49.0502ZM55.5514 95.2724C57.1007 95.2724 59.0752 94.6367 60.5318 92.9209C61.8361 91.3844 62.0515 89.7775 62.0515 88.9518H46.0515C46.0515 87.1435 46.5255 84.6969 48.3342 82.5663C50.295 80.2565 53.0195 79.2724 55.5514 79.2724V95.2724ZM62.0515 88.9518V91.7179H46.0515V88.9518H62.0515ZM47.1213 95.7144C47.1145 95.7025 47.0829 95.6498 47.011 95.5454C46.9384 95.4402 46.8475 95.3151 46.7181 95.1423L59.526 85.5528C59.8706 86.0131 60.4468 86.7938 60.9817 87.7214L47.1213 95.7144ZM46.7059 95.126L44.9734 92.7997L57.8057 83.2429L59.5382 85.5692L46.7059 95.126ZM44.986 92.8166C45.243 93.1598 45.8283 93.8473 46.8345 94.4213C47.9142 95.0372 49.0379 95.2724 49.9937 95.2724V79.2724C53.76 79.2724 56.3437 81.2906 57.793 83.226L44.986 92.8166ZM49.9937 95.2724C51.5072 95.2724 53.1653 94.7166 54.4902 93.4512C55.8487 92.1536 56.5459 90.3985 56.5459 88.6809H40.5459C40.5459 83.0918 45.1121 79.2724 49.9937 79.2724V95.2724ZM56.5459 88.6809V94.9875H40.5459V88.6809H56.5459ZM56.5459 94.9875C56.5459 94.1905 56.342 92.5897 55.0421 91.0488C53.5847 89.3212 51.6012 88.6807 50.0458 88.6807V104.681C47.5078 104.681 44.7744 103.691 42.8127 101.366C41.0085 99.2272 40.5459 96.7798 40.5459 94.9875H56.5459Z" fill="#FF671F" mask="url(#path-8-inside-2)"/>
<mask id="path-10-inside-3" fill="white">
<path d="M40.8421 106.846C41.7216 106.846 42.342 106.212 42.342 105.32V103.899C42.5873 104.235 42.7031 104.377 42.9878 104.725L44.1765 106.173C45.6115 107.93 47.8858 105.708 46.4773 104.119L44.6938 102.102L46.3477 100.163C47.821 98.4444 45.3917 96.4028 44.0214 98.1481L42.9878 99.4652C42.7031 99.8275 42.5735 99.9953 42.342 100.331V98.9617C42.342 98.0695 41.7216 97.4364 40.8421 97.4364C39.9636 97.4364 39.3433 98.0695 39.3433 98.9617V105.32C39.3433 106.212 39.9636 106.846 40.8421 106.846Z"/>
</mask>
<path d="M40.8421 106.846C41.7216 106.846 42.342 106.212 42.342 105.32V103.899C42.5873 104.235 42.7031 104.377 42.9878 104.725L44.1765 106.173C45.6115 107.93 47.8858 105.708 46.4773 104.119L44.6938 102.102L46.3477 100.163C47.821 98.4444 45.3917 96.4028 44.0214 98.1481L42.9878 99.4652C42.7031 99.8275 42.5735 99.9953 42.342 100.331V98.9617C42.342 98.0695 41.7216 97.4364 40.8421 97.4364C39.9636 97.4364 39.3433 98.0695 39.3433 98.9617V105.32C39.3433 106.212 39.9636 106.846 40.8421 106.846Z" fill="#FF671F"/>
<path d="M42.342 103.899H34.342V79.3993L48.8003 99.1779L42.342 103.899ZM42.9878 104.725L36.8047 109.802L36.7987 109.795L36.7928 109.787L42.9878 104.725ZM44.1765 106.173L50.3596 101.097L50.366 101.105L50.3723 101.113L44.1765 106.173ZM46.4773 104.119L40.4905 109.425L40.4839 109.418L46.4773 104.119ZM44.6938 102.102L38.7004 107.401L34.098 102.195L38.6077 96.9094L44.6938 102.102ZM46.3477 100.163L40.2616 94.9708L40.2678 94.9637L40.2739 94.9565L46.3477 100.163ZM44.0214 98.1481L37.7277 93.2095L37.7291 93.2077L44.0214 98.1481ZM42.9878 99.4652L49.2815 104.404L49.2777 104.409L42.9878 99.4652ZM42.342 100.331L48.927 104.874L34.342 126.015V100.331H42.342ZM40.8421 98.8457C39.2963 98.8457 37.5622 99.4387 36.2133 100.813C34.8751 102.176 34.342 103.87 34.342 105.32H50.342C50.342 107.662 49.4986 110.119 47.6304 112.022C45.7515 113.936 43.2674 114.846 40.8421 114.846V98.8457ZM34.342 105.32V103.899H50.342V105.32H34.342ZM48.8003 99.1779C48.8826 99.2904 48.9154 99.3327 48.9393 99.3631C48.9794 99.4142 49.03 99.4766 49.1828 99.6637L36.7928 109.787C36.4803 109.405 36.257 109.131 35.8836 108.62L48.8003 99.1779ZM49.171 99.6492L50.3596 101.097L37.9933 111.25L36.8047 109.802L49.171 99.6492ZM50.3723 101.113C49.4776 100.017 47.8337 98.9003 45.6224 98.822C43.591 98.7501 41.9642 99.5901 40.9302 100.557C39.8989 101.521 39.1056 102.922 38.9481 104.617C38.7752 106.478 39.418 108.215 40.4905 109.425L52.4641 98.8125C56.4848 103.349 55.0872 109.225 51.8562 112.245C50.2503 113.746 47.8739 114.912 45.0565 114.812C42.0592 114.706 39.5928 113.208 37.9806 111.234L50.3723 101.113ZM40.4839 109.418L38.7004 107.401L50.6871 96.8027L52.4706 98.8199L40.4839 109.418ZM38.6077 96.9094L40.2616 94.9708L52.4337 105.355L50.7798 107.294L38.6077 96.9094ZM40.2739 94.9565C39.3469 96.0379 38.6369 97.728 38.8409 99.7008C39.0294 101.524 39.9389 102.988 41.059 103.943C42.1749 104.895 43.804 105.597 45.7158 105.466C47.7961 105.324 49.3984 104.254 50.3136 103.088L37.7291 93.2077C39.3295 91.1694 41.7494 89.7001 44.6245 89.5036C47.3311 89.3185 49.7324 90.3112 51.4428 91.7702C53.1573 93.2327 54.4835 95.4204 54.756 98.0547C55.044 100.839 54.0851 103.429 52.4215 105.37L40.2739 94.9565ZM50.3151 103.087L49.2815 104.404L36.6941 94.5267L37.7277 93.2095L50.3151 103.087ZM49.2777 104.409C49.1321 104.594 49.0804 104.661 49.0442 104.709C49.0228 104.738 48.995 104.775 48.927 104.874L35.7569 95.7881C36.1279 95.2504 36.3758 94.9317 36.6979 94.5219L49.2777 104.409ZM34.342 100.331V98.9617H50.342V100.331H34.342ZM34.342 98.9617C34.342 100.41 34.874 102.106 36.2147 103.471C37.5656 104.846 39.3002 105.436 40.8421 105.436V89.4364C43.2635 89.4364 45.7481 90.3435 47.629 92.2584C49.4998 94.1629 50.342 96.6214 50.342 98.9617H34.342ZM40.8421 105.436C42.3871 105.436 44.122 104.844 45.4718 103.469C46.8114 102.105 47.3433 100.41 47.3433 98.9617H31.3433C31.3433 96.6216 32.1853 94.1638 34.0547 92.2598C35.9343 90.3453 38.4186 89.4364 40.8421 89.4364V105.436ZM47.3433 98.9617V105.32H31.3433V98.9617H47.3433ZM47.3433 105.32C47.3433 103.87 46.8102 102.176 45.4732 100.814C44.1254 99.4405 42.391 98.8457 40.8421 98.8457V114.846C38.4147 114.846 35.9309 113.934 34.0533 112.02C32.1865 110.118 31.3433 107.662 31.3433 105.32H47.3433Z" fill="#FF671F" mask="url(#path-10-inside-3)"/>
<mask id="path-12-inside-4" fill="white">
<path d="M49.9656 106.848C50.9482 106.848 51.4655 106.15 51.4655 105.154V102.57C51.7109 102.957 52.0211 103.422 52.2919 103.771L54.1275 106.098C54.4897 106.563 54.8902 106.848 55.536 106.848C56.338 106.848 56.9711 106.266 56.9711 105.439V99.1188C56.9711 98.1362 56.4538 97.4383 55.4723 97.4383C54.4897 97.4383 53.9724 98.1362 53.9724 99.1188V101.884C53.6877 101.393 53.352 100.928 53.0419 100.515L51.3104 98.1883C50.9609 97.723 50.5477 97.4383 49.9146 97.4383C49.0999 97.4383 48.4668 98.0194 48.4668 98.8469V105.154C48.4668 106.15 48.9841 106.848 49.9656 106.848Z"/>
</mask>
<path d="M49.9656 106.848C50.9482 106.848 51.4655 106.15 51.4655 105.154V102.57C51.7109 102.957 52.0211 103.422 52.2919 103.771L54.1275 106.098C54.4897 106.563 54.8902 106.848 55.536 106.848C56.338 106.848 56.9711 106.266 56.9711 105.439V99.1188C56.9711 98.1362 56.4538 97.4383 55.4723 97.4383C54.4897 97.4383 53.9724 98.1362 53.9724 99.1188V101.884C53.6877 101.393 53.352 100.928 53.0419 100.515L51.3104 98.1883C50.9609 97.723 50.5477 97.4383 49.9146 97.4383C49.0999 97.4383 48.4668 98.0194 48.4668 98.8469V105.154C48.4668 106.15 48.9841 106.848 49.9656 106.848Z" fill="#FF671F"/>
<path d="M51.4655 102.57H43.4655V75.0337L58.2201 98.2834L51.4655 102.57ZM52.2919 103.771L46.0115 108.727L45.9901 108.7L45.9688 108.672L52.2919 103.771ZM54.1275 106.098L60.4079 101.142L60.424 101.163L60.44 101.183L54.1275 106.098ZM53.9724 101.884H61.9724V131.618L47.0524 105.898L53.9724 101.884ZM53.0419 100.515L46.6438 105.317L46.6341 105.304L46.6243 105.291L53.0419 100.515ZM51.3104 98.1883L57.7069 93.3836L57.7175 93.3976L57.728 93.4117L51.3104 98.1883ZM49.9656 98.8477C48.4102 98.8477 46.4267 99.4882 44.9693 101.216C43.6694 102.757 43.4655 104.357 43.4655 105.154H59.4655C59.4655 106.947 59.003 109.394 57.1987 111.533C55.237 113.858 52.5036 114.848 49.9656 114.848V98.8477ZM43.4655 105.154V102.57H59.4655V105.154H43.4655ZM58.2201 98.2834C58.3061 98.4188 58.396 98.5563 58.4785 98.6773C58.5191 98.7368 58.553 98.7851 58.5795 98.8221C58.607 98.8603 58.6186 98.8752 58.615 98.8705L45.9688 108.672C45.4671 108.025 44.9991 107.311 44.7109 106.857L58.2201 98.2834ZM58.5723 98.8159L60.4079 101.142L47.8471 111.053L46.0115 108.727L58.5723 98.8159ZM60.44 101.183C60.252 100.942 59.6936 100.273 58.6971 99.7027C57.605 99.0781 56.4754 98.8477 55.536 98.8477V114.848C53.9508 114.848 52.298 114.475 50.7536 113.592C49.3049 112.763 48.3652 111.719 47.815 111.012L60.44 101.183ZM55.536 98.8477C53.9788 98.8477 52.3164 99.4286 51.0065 100.689C49.6661 101.98 48.9711 103.723 48.9711 105.439H64.9711C64.9711 110.969 60.4654 114.848 55.536 114.848V98.8477ZM48.9711 105.439V99.1188H64.9711V105.439H48.9711ZM48.9711 99.1188C48.9711 99.9444 49.1863 101.548 50.4873 103.083C51.9411 104.798 53.9156 105.438 55.4723 105.438V89.4383C58.0104 89.4383 60.7344 90.4275 62.6922 92.7371C64.4973 94.8664 64.9711 97.3106 64.9711 99.1188H48.9711ZM55.4723 105.438C57.0257 105.438 59.0001 104.8 60.455 103.085C61.7572 101.549 61.9724 99.9444 61.9724 99.1188H45.9724C45.9724 97.3106 46.4463 94.8654 48.2528 92.7355C50.2119 90.4256 52.9363 89.4383 55.4723 89.4383V105.438ZM61.9724 99.1188V101.884H45.9724V99.1188H61.9724ZM47.0524 105.898C47.0412 105.879 47.0058 105.82 46.9327 105.714C46.8595 105.608 46.7684 105.483 46.6438 105.317L59.4399 95.7119C59.7951 96.1851 60.3626 96.9564 60.8924 97.8696L47.0524 105.898ZM46.6243 105.291L44.8929 102.965L57.728 93.4117L59.4594 95.738L46.6243 105.291ZM44.9139 102.993C45.1636 103.325 45.7443 104.01 46.7471 104.583C47.8262 105.2 48.9525 105.438 49.9146 105.438V89.4383C53.6962 89.4383 56.2716 91.4727 57.7069 93.3836L44.9139 102.993ZM49.9146 105.438C51.4297 105.438 53.0889 104.881 54.4137 103.615C55.7709 102.317 56.4668 100.563 56.4668 98.8469H40.4668C40.4668 93.2664 45.0239 89.4383 49.9146 89.4383V105.438ZM56.4668 98.8469V105.154H40.4668V98.8469H56.4668ZM56.4668 105.154C56.4668 104.357 56.2629 102.758 54.9642 101.217C53.5078 99.4902 51.5243 98.8477 49.9656 98.8477V114.848C47.4255 114.848 44.6925 113.856 42.7321 111.531C40.9293 109.393 40.4668 106.947 40.4668 105.154H56.4668Z" fill="#FF671F" mask="url(#path-12-inside-4)"/>
<path d="M60.654 98.5329L59.4076 98.7418L59.6043 97.5617C59.776 97.5937 59.9579 97.6444 60.1423 97.7175C60.3953 97.8996 60.5928 98.172 60.654 98.5329ZM60.654 98.5329L59.4073 98.7441L59.398 98.7998L60.6082 99.3538C60.6714 99.0368 60.6924 98.7624 60.654 98.5329ZM58.0632 98.1887L59.3034 98.7565L59.3055 98.7574L59.377 98.2089L59.4643 97.5397C59.2538 97.5122 59.0175 97.507 58.7686 97.5353C58.4772 97.645 58.2161 97.8562 58.0632 98.1887ZM58.0632 98.1887L59.3031 98.759L59.3038 98.7593L59.303 98.7594L57.8925 98.9959C57.9144 98.6721 57.9659 98.4011 58.0632 98.1887ZM58.1619 101.027C57.9091 100.646 57.8868 100.126 57.8804 99.5664C57.8785 99.4297 57.8792 99.2994 57.8834 99.1759C57.8835 99.1742 57.8835 99.1726 57.8836 99.1709C57.8851 99.1278 57.8871 99.0855 57.8894 99.0441C57.8895 99.0429 57.8896 99.0417 57.8897 99.0404C57.8904 99.0271 57.8913 99.0139 57.8921 99.0008L59.3027 98.7618L59.3049 98.7614L59.272 99.014L59.2011 99.5472L59.2011 99.5477L59.2007 99.5501L59.2006 99.5514L59.0864 100.411L59.0862 100.412L59.086 100.413L59.0803 100.417L58.1619 101.027ZM58.1619 101.027L59.0801 100.418L59.0858 100.415L58.9679 101.302L58.9521 101.421C58.9507 101.421 58.9494 101.421 58.9481 101.42C58.9472 101.42 58.9464 101.42 58.9455 101.42C58.7662 101.396 58.5824 101.351 58.3992 101.283C58.3116 101.215 58.2306 101.13 58.1619 101.027ZM60.6073 99.3587L59.3976 98.8024L59.2736 99.5462L59.2729 99.5506L59.2701 99.5674L59.2697 99.5696L59.1345 100.381L60.0305 99.7857L60.0314 99.7851L60.4038 99.5377L60.4161 99.5296L60.5968 99.4095C60.6004 99.3925 60.6039 99.3755 60.6073 99.3587ZM59.2024 99.5472L59.2471 99.2049L59.2017 99.5472L59.2016 99.5478L59.2013 99.5502L59.2011 99.5514L59.0871 100.411L59.0869 100.413L59.0877 100.412L59.0898 100.411L59.2019 99.5514L59.202 99.5504L59.2023 99.548L59.2024 99.5472ZM59.0876 100.413L59.0867 100.414L58.973 101.271L58.9531 101.421C58.9547 101.421 58.9563 101.421 58.9579 101.422L58.9941 101.145L59.0892 100.415L59.0894 100.414L59.0896 100.412L59.0884 100.413L59.0876 100.413ZM58.9609 101.422C59.1385 101.445 59.3264 101.45 59.5205 101.432C59.6229 101.389 59.7233 101.329 59.8169 101.247C60.1611 100.946 60.3172 100.449 60.4702 99.9106C60.5075 99.7803 60.5405 99.6554 60.5686 99.5358C60.5693 99.533 60.5699 99.5302 60.5706 99.5273C60.5796 99.4888 60.5881 99.4508 60.596 99.4134L60.4208 99.5295L60.4085 99.5377L60.0341 99.7859L60.0332 99.7865L59.1342 100.382L59.1226 100.452L59.1224 100.453L58.9609 101.422Z" fill="#FF671F" stroke="#FF671F" stroke-width="8"/>
<path d="M58.2857 106.296L58.2721 106.365L58.3416 106.35L58.4448 106.328L58.3416 106.307L58.2857 106.296ZM58.4946 106.308L58.5145 106.313L58.5971 106.296L58.4946 106.276L58.3416 106.247L58.2971 106.238L58.2943 106.252L58.3416 106.265L58.4946 106.308ZM58.6104 106.298L58.5731 106.308L58.5731 106.308L58.5336 106.318L58.5626 106.326L58.6482 106.337L58.7256 106.346L58.7262 106.346L58.809 106.336L58.8887 106.326L58.9177 106.318L58.8782 106.308L58.8362 106.297L58.8302 106.298L58.7262 106.32L58.616 106.299L58.6104 106.298ZM59.1096 106.342L59.1777 106.355L59.166 106.295L59.1096 106.307L59.021 106.325L59.1096 106.342ZM59.1096 106.265L59.1575 106.252L59.1531 106.23L59.1096 106.239L58.9567 106.271L58.8542 106.293L58.9459 106.311L58.9567 106.308L59.1096 106.265Z" fill="#FF671F" stroke="#FF671F" stroke-width="8"/>
<path d="M57.5971 106.116H57.7161V106.625C57.7161 106.7 57.7713 106.758 57.8489 106.758C57.9243 106.758 57.9785 106.7 57.9785 106.625V106.116H58.1006C58.1761 106.116 58.2302 106.064 58.2302 105.992C58.2302 105.919 58.1761 105.868 58.1006 105.868H57.9785H57.8489H57.7161H57.5971C57.5196 105.868 57.4644 105.919 57.4644 105.992C57.4644 106.064 57.5196 106.116 57.5971 106.116Z" fill="#FF671F" stroke="#FF671F" stroke-width="8"/>
<path fill-rule="evenodd" clip-rule="evenodd" d="M233.187 0H308.578C314.859 0 320 5.1302 320 11.409V157.506C320 163.79 314.859 168.915 308.578 168.915H233.187C226.906 168.915 221.765 163.78 221.765 157.501V114.407H229.713V147.801H312.052V18.0932H229.713V64.6912H221.765V11.409C221.765 5.1302 226.906 0 233.187 0ZM282.942 8.22376H258.823C258.059 8.22376 257.441 8.84151 257.441 9.60886C257.441 10.3714 258.059 10.9891 258.823 10.9891H282.942C283.705 10.9891 284.324 10.3714 284.324 9.60886C284.324 8.84151 283.705 8.22376 282.942 8.22376ZM265.171 157.501C265.171 160.658 267.727 163.211 270.882 163.211C274.037 163.211 276.593 160.658 276.593 157.501C276.593 154.345 274.037 151.797 270.882 151.797C267.727 151.797 265.171 154.345 265.171 157.501Z" fill="#FF6C0C"/>
<path d="M258.37 45.4469L258.853 45.7091C259.503 46.0622 259.572 46.629 259.572 46.8568C259.573 47.0838 259.503 47.6506 258.856 48.0029L258.614 48.1344C257.481 48.7474 257.117 50.0712 257.8 51.0897C258.249 51.7598 259.04 52.1309 259.852 52.1309C260.273 52.1309 260.699 52.0314 261.087 51.8216L261.331 51.6893C263.23 50.6568 264.363 48.8507 264.362 46.856C264.362 44.8621 263.229 43.0561 261.331 42.0243L260.847 41.762C260.198 41.409 260.127 40.8422 260.127 40.6144C260.127 40.3873 260.198 39.8206 260.849 39.4659L261.091 39.3344C262.221 38.7191 262.584 37.3953 261.898 36.3784C261.213 35.3614 259.741 35.0358 258.609 35.6519L258.37 35.7826C256.472 36.8136 255.338 38.6197 255.338 40.6144C255.338 42.6091 256.471 44.4151 258.37 45.4469Z" fill="#FF671F"/>
<path d="M269.5 45.4461L269.983 45.7091C270.633 46.0622 270.703 46.629 270.703 46.856C270.703 47.0838 270.633 47.6506 269.984 48.0037L269.743 48.1344C268.611 48.749 268.247 50.0727 268.93 51.0897C269.381 51.7598 270.171 52.1309 270.983 52.1309C271.404 52.1309 271.831 52.0307 272.218 51.8201L272.461 51.6885C274.359 50.6568 275.493 48.8499 275.493 46.856C275.493 44.8621 274.359 43.0553 272.461 42.0243L271.978 41.7612C271.328 41.4082 271.258 40.8414 271.258 40.6144C271.258 40.3866 271.328 39.8198 271.98 39.4659L272.221 39.3344C273.352 38.7183 273.714 37.3945 273.029 36.3776C272.344 35.3614 270.871 35.0342 269.739 35.6519L269.5 35.7818C267.602 36.8136 266.469 38.6197 266.469 40.6136C266.468 42.6083 267.602 44.4151 269.5 45.4461Z" fill="#FF671F"/>
<path d="M280.63 45.4461L281.114 45.7091C281.763 46.0622 281.834 46.629 281.834 46.856C281.834 47.0838 281.763 47.6506 281.114 48.0037L280.872 48.1344C279.741 48.749 279.377 50.0727 280.061 51.0897C280.51 51.7598 281.302 52.1309 282.113 52.1309C282.535 52.1309 282.961 52.0307 283.349 51.8201L283.591 51.6885C285.489 50.6568 286.623 48.8499 286.623 46.856C286.623 44.8621 285.489 43.0553 283.591 42.0243L283.108 41.7612C282.459 41.4082 282.388 40.8414 282.388 40.6144C282.388 40.3866 282.459 39.8198 283.11 39.4659L283.351 39.3344C284.483 38.7183 284.844 37.3945 284.16 36.3776C283.473 35.3607 282 35.0342 280.87 35.6519L280.63 35.7818C278.732 36.8136 277.599 38.6197 277.599 40.6136C277.599 42.6083 278.732 44.4151 280.63 45.4461Z" fill="#FF671F"/>
<path d="M283.283 126.129L283.247 126.59H282.785H259.178H258.715L258.679 126.129L254.884 77.1704L254.842 76.6317H255.383H286.579H287.119L287.077 77.1704L283.283 126.129ZM256.127 63.5208L256.191 63.0317L256.68 63.0886L285.808 66.4705L286.164 66.5119L286.239 66.8626L286.812 69.5429L286.942 70.1475H286.323H255.835H255.266L255.339 69.583L256.127 63.5208ZM294.279 70.2098L293.949 70.1508L293.878 69.8222L292.406 62.9376L292.406 62.9373C292.117 61.5834 290.941 60.5328 289.459 60.3613L289.459 60.3613L253.621 56.2L253.62 56.2C251.717 55.9767 250.022 57.2664 249.794 59.0226L249.298 58.9581L249.794 59.0226L248.397 69.7522L248.346 70.1446L247.952 70.1851C246.208 70.3647 244.888 71.7435 244.888 73.3896C244.888 74.9235 246.027 76.2315 247.587 76.5531L247.956 76.6291L247.985 77.0042L251.905 127.575L251.905 127.575C252.142 130.636 254.868 133.074 258.151 133.074H283.809C287.092 133.074 289.819 130.637 290.057 127.574L293.977 77.0042L294.006 76.6293L294.374 76.5532C295.935 76.2307 297.072 74.9227 297.072 73.3896C297.072 71.8258 295.888 70.497 294.279 70.2098Z" fill="#FF671F" stroke="white"/>
<mask id="path-22-inside-5" fill="white">
<path d="M263.967 90.3486H264.742C265.712 90.3486 266.423 90.9689 266.423 91.977C266.423 92.985 265.712 93.6054 264.742 93.6054H263.967V90.3486ZM262.649 96.5H264.652C267.301 96.5 269.421 94.7547 269.421 91.977C269.421 89.1982 267.301 87.4529 264.652 87.4529H262.649C261.679 87.4529 260.968 88.1635 260.968 89.1334V94.8206C260.968 95.7894 261.679 96.5 262.649 96.5Z"/>
</mask>
<path d="M263.967 90.3486H264.742C265.712 90.3486 266.423 90.9689 266.423 91.977C266.423 92.985 265.712 93.6054 264.742 93.6054H263.967V90.3486ZM262.649 96.5H264.652C267.301 96.5 269.421 94.7547 269.421 91.977C269.421 89.1982 267.301 87.4529 264.652 87.4529H262.649C261.679 87.4529 260.968 88.1635 260.968 89.1334V94.8206C260.968 95.7894 261.679 96.5 262.649 96.5Z" fill="#FF671F"/>
<path d="M263.967 90.3486H255.967V82.3486H263.967V90.3486ZM263.967 93.6054V101.605H255.967V93.6054H263.967ZM263.967 82.3486H264.742V98.3486H263.967V82.3486ZM264.742 82.3486C266.929 82.3486 269.417 83.0668 271.427 84.9571C273.497 86.9037 274.423 89.5008 274.423 91.977H258.423C258.423 93.4451 258.994 95.2279 260.466 96.6124C261.878 97.9405 263.526 98.3486 264.742 98.3486V82.3486ZM274.423 91.977C274.423 94.4532 273.497 97.0502 271.427 98.9969C269.417 100.887 266.929 101.605 264.742 101.605V85.6054C263.526 85.6054 261.878 86.0134 260.466 87.3416C258.994 88.726 258.423 90.5089 258.423 91.977H274.423ZM264.742 101.605H263.967V85.6054H264.742V101.605ZM255.967 93.6054V90.3486H271.967V93.6054H255.967ZM262.649 88.5H264.652V104.5H262.649V88.5ZM264.652 88.5C264.238 88.5 263.434 88.6458 262.645 89.3636C261.776 90.1542 261.421 91.2013 261.421 91.977H277.421C277.421 95.5305 276.005 98.839 273.414 101.197C270.904 103.482 267.716 104.5 264.652 104.5V88.5ZM261.421 91.977C261.421 92.7513 261.776 93.7981 262.645 94.589C263.434 95.3071 264.238 95.4529 264.652 95.4529V79.4529C267.716 79.4529 270.904 80.4713 273.415 82.7567C276.006 85.115 277.421 88.4239 277.421 91.977H261.421ZM264.652 95.4529H262.649V79.4529H264.652V95.4529ZM262.649 95.4529C264.172 95.4529 265.822 94.8664 267.102 93.5863C268.382 92.3062 268.968 90.6562 268.968 89.1334H252.968C252.968 83.7453 257.261 79.4529 262.649 79.4529V95.4529ZM268.968 89.1334V94.8206H252.968V89.1334H268.968ZM268.968 94.8206C268.968 93.2949 268.38 91.6447 267.1 90.3655C265.821 89.0863 264.171 88.5 262.649 88.5V104.5C257.264 104.5 252.968 100.211 252.968 94.8206H268.968Z" fill="#FF671F" mask="url(#path-22-inside-5)"/>
<mask id="path-24-inside-6" fill="white">
<path d="M271.672 96.6807C272.654 96.6807 273.171 95.9828 273.171 94.9875V92.403C273.418 92.7907 273.728 93.2549 273.999 93.6044L275.833 95.9307C276.195 96.396 276.597 96.6807 277.243 96.6807C278.044 96.6807 278.677 96.0986 278.677 95.2721V88.9518C278.677 87.9692 278.16 87.2724 277.178 87.2724C276.195 87.2724 275.678 87.9692 275.678 88.9518V91.7179C275.394 91.2261 275.059 90.7619 274.748 90.3476L273.016 88.0213C272.668 87.556 272.253 87.2724 271.62 87.2724C270.807 87.2724 270.172 87.8524 270.172 88.6809V94.9875C270.172 95.9828 270.69 96.6807 271.672 96.6807Z"/>
</mask>
<path d="M271.672 96.6807C272.654 96.6807 273.171 95.9828 273.171 94.9875V92.403C273.418 92.7907 273.728 93.2549 273.999 93.6044L275.833 95.9307C276.195 96.396 276.597 96.6807 277.243 96.6807C278.044 96.6807 278.677 96.0986 278.677 95.2721V88.9518C278.677 87.9692 278.16 87.2724 277.178 87.2724C276.195 87.2724 275.678 87.9692 275.678 88.9518V91.7179C275.394 91.2261 275.059 90.7619 274.748 90.3476L273.016 88.0213C272.668 87.556 272.253 87.2724 271.62 87.2724C270.807 87.2724 270.172 87.8524 270.172 88.6809V94.9875C270.172 95.9828 270.69 96.6807 271.672 96.6807Z" fill="#FF671F"/>
<path d="M273.171 92.403H265.171V64.9033L279.923 88.1116L273.171 92.403ZM273.999 93.6044L267.717 98.5581L267.696 98.5318L267.675 98.5053L273.999 93.6044ZM275.833 95.9307L282.115 90.977L282.13 90.9966L282.146 91.0162L275.833 95.9307ZM275.678 91.7179H283.678V121.605L268.748 95.7144L275.678 91.7179ZM274.748 90.3476L268.345 95.1423L268.338 95.1342L268.332 95.126L274.748 90.3476ZM273.016 88.0213L279.419 83.226L279.426 83.2344L279.432 83.2429L273.016 88.0213ZM271.672 88.6807C270.114 88.6807 268.13 89.3232 266.674 91.0504C265.375 92.5906 265.171 94.1904 265.171 94.9875H281.171C281.171 96.7798 280.709 99.2262 278.906 101.364C276.945 103.689 274.212 104.681 271.672 104.681V88.6807ZM265.171 94.9875V92.403H281.171V94.9875H265.171ZM279.923 88.1116C280.009 88.2469 280.099 88.3844 280.182 88.5059C280.223 88.5656 280.257 88.6144 280.284 88.6519C280.312 88.6907 280.324 88.7067 280.322 88.7035L267.675 98.5053C267.177 97.8618 266.71 97.1522 266.419 96.6944L279.923 88.1116ZM280.28 88.6507L282.115 90.977L269.551 100.884L267.717 98.5581L280.28 88.6507ZM282.146 91.0162C281.955 90.7711 281.396 90.1026 280.4 89.5337C279.309 88.9109 278.182 88.6807 277.243 88.6807V104.681C275.658 104.681 274.006 104.308 272.463 103.427C271.015 102.599 270.074 101.556 269.521 100.845L282.146 91.0162ZM277.243 88.6807C275.682 88.6807 274.02 89.2635 272.711 90.5239C271.371 91.8136 270.677 93.5558 270.677 95.2721H286.677C286.677 100.798 282.175 104.681 277.243 104.681V88.6807ZM270.677 95.2721V88.9518H286.677V95.2721H270.677ZM270.677 88.9518C270.677 89.7737 270.89 91.3802 272.194 92.9178C273.651 94.6362 275.628 95.2724 277.178 95.2724V79.2724C279.71 79.2724 282.436 80.257 284.397 82.5695C286.205 84.7011 286.677 87.1473 286.677 88.9518H270.677ZM277.178 95.2724C278.727 95.2724 280.702 94.6367 282.158 92.9209C283.463 91.3844 283.678 89.7775 283.678 88.9518H267.678C267.678 87.1435 268.152 84.6969 269.961 82.5663C271.921 80.2565 274.646 79.2724 277.178 79.2724V95.2724ZM283.678 88.9518V91.7179H267.678V88.9518H283.678ZM268.748 95.7144C268.741 95.7025 268.709 95.6498 268.637 95.5454C268.565 95.4402 268.474 95.3151 268.345 95.1423L281.152 85.5528C281.497 86.0131 282.073 86.7938 282.608 87.7214L268.748 95.7144ZM268.332 95.126L266.6 92.7997L279.432 83.2429L281.165 85.5692L268.332 95.126ZM266.612 92.8166C266.869 93.1598 267.455 93.8473 268.461 94.4213C269.541 95.0372 270.664 95.2724 271.62 95.2724V79.2724C275.386 79.2724 277.97 81.2906 279.419 83.226L266.612 92.8166ZM271.62 95.2724C273.134 95.2724 274.792 94.7166 276.117 93.4512C277.475 92.1536 278.172 90.3985 278.172 88.6809H262.172C262.172 83.0918 266.739 79.2724 271.62 79.2724V95.2724ZM278.172 88.6809V94.9875H262.172V88.6809H278.172ZM278.172 94.9875C278.172 94.1905 277.968 92.5897 276.669 91.0488C275.211 89.3212 273.228 88.6807 271.672 88.6807V104.681C269.134 104.681 266.401 103.691 264.439 101.366C262.635 99.2272 262.172 96.7798 262.172 94.9875H278.172Z" fill="#FF671F" mask="url(#path-24-inside-6)"/>
<mask id="path-26-inside-7" fill="white">
<path d="M262.469 106.847C263.348 106.847 263.968 106.213 263.968 105.321V103.9C264.214 104.236 264.33 104.378 264.614 104.726L265.803 106.174C267.238 107.931 269.512 105.709 268.104 104.12L266.32 102.103L267.974 100.164C269.447 98.4454 267.018 96.4038 265.648 98.149L264.614 99.4662C264.33 99.8285 264.2 99.9963 263.968 100.332V98.9627C263.968 98.0704 263.348 97.4373 262.469 97.4373C261.59 97.4373 260.97 98.0704 260.97 98.9627V105.321C260.97 106.213 261.59 106.847 262.469 106.847Z"/>
</mask>
<path d="M262.469 106.847C263.348 106.847 263.968 106.213 263.968 105.321V103.9C264.214 104.236 264.33 104.378 264.614 104.726L265.803 106.174C267.238 107.931 269.512 105.709 268.104 104.12L266.32 102.103L267.974 100.164C269.447 98.4454 267.018 96.4038 265.648 98.149L264.614 99.4662C264.33 99.8285 264.2 99.9963 263.968 100.332V98.9627C263.968 98.0704 263.348 97.4373 262.469 97.4373C261.59 97.4373 260.97 98.0704 260.97 98.9627V105.321C260.97 106.213 261.59 106.847 262.469 106.847Z" fill="#FF671F"/>
<path d="M263.968 103.9H255.968V79.4003L270.427 99.1789L263.968 103.9ZM264.614 104.726L258.431 109.803L258.425 109.795L258.419 109.788L264.614 104.726ZM265.803 106.174L271.986 101.098L271.992 101.106L271.999 101.113L265.803 106.174ZM268.104 104.12L262.117 109.426L262.11 109.419L268.104 104.12ZM266.32 102.103L260.327 107.402L255.725 102.196L260.234 96.9104L266.32 102.103ZM267.974 100.164L261.888 94.9718L261.894 94.9646L261.9 94.9575L267.974 100.164ZM265.648 98.149L259.354 93.2105L259.356 93.2087L265.648 98.149ZM264.614 99.4662L270.908 104.405L270.904 104.41L264.614 99.4662ZM263.968 100.332L270.553 104.875L255.968 126.016V100.332H263.968ZM262.469 98.8467C260.923 98.8467 259.189 99.4397 257.84 100.814C256.502 102.176 255.968 103.871 255.968 105.321H271.968C271.968 107.663 271.125 110.12 269.257 112.023C267.378 113.937 264.894 114.847 262.469 114.847V98.8467ZM255.968 105.321V103.9H271.968V105.321H255.968ZM270.427 99.1789C270.509 99.2914 270.542 99.3336 270.566 99.3641C270.606 99.4151 270.656 99.4776 270.809 99.6647L258.419 109.788C258.107 109.406 257.884 109.132 257.51 108.621L270.427 99.1789ZM270.797 99.6502L271.986 101.098L259.62 111.251L258.431 109.803L270.797 99.6502ZM271.999 101.113C271.104 100.018 269.46 98.9012 267.249 98.823C265.218 98.7511 263.591 99.591 262.557 100.558C261.525 101.522 260.732 102.923 260.575 104.618C260.402 106.479 261.044 108.216 262.117 109.426L274.091 98.8134C278.111 103.35 276.714 109.226 273.483 112.246C271.877 113.747 269.5 114.913 266.683 114.813C263.686 114.707 261.219 113.209 259.607 111.235L271.999 101.113ZM262.11 109.419L260.327 107.402L272.314 96.8037L274.097 98.8209L262.11 109.419ZM260.234 96.9104L261.888 94.9718L274.06 105.356L272.406 107.295L260.234 96.9104ZM261.9 94.9575C260.973 96.0389 260.263 97.729 260.467 99.7018C260.656 101.524 261.565 102.989 262.685 103.944C263.801 104.896 265.43 105.598 267.342 105.467C269.423 105.325 271.025 104.255 271.94 103.089L259.356 93.2087C260.956 91.1704 263.376 89.7011 266.251 89.5046C268.958 89.3195 271.359 90.3122 273.069 91.7712C274.784 93.2337 276.11 95.4214 276.382 98.0557C276.67 100.84 275.712 103.43 274.048 105.371L261.9 94.9575ZM271.942 103.088L270.908 104.405L258.321 94.5277L259.354 93.2105L271.942 103.088ZM270.904 104.41C270.759 104.595 270.707 104.662 270.671 104.71C270.649 104.739 270.621 104.776 270.553 104.875L257.383 95.7891C257.754 95.2514 258.002 94.9326 258.324 94.5228L270.904 104.41ZM255.968 100.332V98.9627H271.968V100.332H255.968ZM255.968 98.9627C255.968 100.411 256.5 102.107 257.841 103.472C259.192 104.847 260.927 105.437 262.469 105.437V89.4373C264.89 89.4373 267.375 90.3445 269.256 92.2594C271.126 94.1638 271.968 96.6224 271.968 98.9627H255.968ZM262.469 105.437C264.014 105.437 265.748 104.845 267.098 103.47C268.438 102.106 268.97 100.411 268.97 98.9627H252.97C252.97 96.6225 253.812 94.1648 255.681 92.2608C257.561 90.3463 260.045 89.4373 262.469 89.4373V105.437ZM268.97 98.9627V105.321H252.97V98.9627H268.97ZM268.97 105.321C268.97 103.871 268.437 102.177 267.1 100.815C265.752 99.4415 264.017 98.8467 262.469 98.8467V114.847C260.041 114.847 257.557 113.935 255.68 112.021C253.813 110.119 252.97 107.663 252.97 105.321H268.97Z" fill="#FF671F" mask="url(#path-26-inside-7)"/>
<mask id="path-28-inside-8" fill="white">
<path d="M271.592 106.848C272.574 106.848 273.091 106.15 273.091 105.154V102.57C273.337 102.957 273.647 103.422 273.918 103.771L275.753 106.098C276.116 106.563 276.516 106.848 277.162 106.848C277.964 106.848 278.597 106.266 278.597 105.439V99.1188C278.597 98.1362 278.08 97.4383 277.098 97.4383C276.116 97.4383 275.598 98.1362 275.598 99.1188V101.884C275.314 101.393 274.978 100.928 274.668 100.515L272.936 98.1883C272.587 97.723 272.174 97.4383 271.541 97.4383C270.726 97.4383 270.093 98.0194 270.093 98.8469V105.154C270.093 106.15 270.61 106.848 271.592 106.848Z"/>
</mask>
<path d="M271.592 106.848C272.574 106.848 273.091 106.15 273.091 105.154V102.57C273.337 102.957 273.647 103.422 273.918 103.771L275.753 106.098C276.116 106.563 276.516 106.848 277.162 106.848C277.964 106.848 278.597 106.266 278.597 105.439V99.1188C278.597 98.1362 278.08 97.4383 277.098 97.4383C276.116 97.4383 275.598 98.1362 275.598 99.1188V101.884C275.314 101.393 274.978 100.928 274.668 100.515L272.936 98.1883C272.587 97.723 272.174 97.4383 271.541 97.4383C270.726 97.4383 270.093 98.0194 270.093 98.8469V105.154C270.093 106.15 270.61 106.848 271.592 106.848Z" fill="#FF671F"/>
<path d="M273.091 102.57H265.091V75.0337L279.846 98.2834L273.091 102.57ZM273.918 103.771L267.638 108.727L267.616 108.7L267.595 108.672L273.918 103.771ZM275.753 106.098L282.034 101.142L282.05 101.163L282.066 101.183L275.753 106.098ZM275.598 101.884H283.598V131.618L268.678 105.898L275.598 101.884ZM274.668 100.515L268.27 105.317L268.26 105.304L268.25 105.291L274.668 100.515ZM272.936 98.1883L279.333 93.3836L279.343 93.3976L279.354 93.4117L272.936 98.1883ZM271.592 98.8477C270.036 98.8477 268.053 99.4882 266.595 101.216C265.295 102.757 265.091 104.357 265.091 105.154H281.091C281.091 106.947 280.629 109.394 278.825 111.533C276.863 113.858 274.13 114.848 271.592 114.848V98.8477ZM265.091 105.154V102.57H281.091V105.154H265.091ZM279.846 98.2834C279.932 98.4188 280.022 98.5563 280.105 98.6773C280.145 98.7368 280.179 98.7851 280.206 98.8221C280.233 98.8603 280.245 98.8752 280.241 98.8705L267.595 108.672C267.093 108.025 266.625 107.311 266.337 106.857L279.846 98.2834ZM280.198 98.8159L282.034 101.142L269.473 111.053L267.638 108.727L280.198 98.8159ZM282.066 101.183C281.878 100.942 281.32 100.273 280.323 99.7027C279.231 99.0781 278.101 98.8477 277.162 98.8477V114.848C275.577 114.848 273.924 114.475 272.38 113.592C270.931 112.763 269.991 111.719 269.441 111.012L282.066 101.183ZM277.162 98.8477C275.605 98.8477 273.942 99.4286 272.633 100.689C271.292 101.98 270.597 103.723 270.597 105.439H286.597C286.597 110.969 282.091 114.848 277.162 114.848V98.8477ZM270.597 105.439V99.1188H286.597V105.439H270.597ZM270.597 99.1188C270.597 99.9444 270.812 101.548 272.113 103.083C273.567 104.798 275.542 105.438 277.098 105.438V89.4383C279.636 89.4383 282.36 90.4275 284.318 92.7371C286.123 94.8664 286.597 97.3106 286.597 99.1188H270.597ZM277.098 105.438C278.652 105.438 280.626 104.8 282.081 103.085C283.383 101.549 283.598 99.9444 283.598 99.1188H267.598C267.598 97.3106 268.072 94.8654 269.879 92.7355C271.838 90.4256 274.562 89.4383 277.098 89.4383V105.438ZM283.598 99.1188V101.884H267.598V99.1188H283.598ZM268.678 105.898C268.667 105.879 268.632 105.82 268.559 105.714C268.485 105.608 268.394 105.483 268.27 105.317L281.066 95.7119C281.421 96.1851 281.989 96.9564 282.518 97.8696L268.678 105.898ZM268.25 105.291L266.519 102.965L279.354 93.4117L281.085 95.738L268.25 105.291ZM266.54 102.993C266.79 103.325 267.37 104.01 268.373 104.583C269.452 105.2 270.579 105.438 271.541 105.438V89.4383C275.322 89.4383 277.898 91.4727 279.333 93.3836L266.54 102.993ZM271.541 105.438C273.056 105.438 274.715 104.881 276.04 103.615C277.397 102.317 278.093 100.563 278.093 98.8469H262.093C262.093 93.2664 266.65 89.4383 271.541 89.4383V105.438ZM278.093 98.8469V105.154H262.093V98.8469H278.093ZM278.093 105.154C278.093 104.357 277.889 102.758 276.59 101.217C275.134 99.4902 273.15 98.8477 271.592 98.8477V114.848C269.051 114.848 266.318 113.856 264.358 111.531C262.555 109.393 262.093 106.947 262.093 105.154H278.093Z" fill="#FF671F" mask="url(#path-28-inside-8)"/>
<path d="M282.28 98.5329L281.034 98.7418L281.231 97.5617C281.402 97.5937 281.584 97.6444 281.769 97.7175C282.022 97.8996 282.219 98.172 282.28 98.5329ZM282.28 98.5329L281.034 98.7441L281.024 98.7998L282.235 99.3538C282.298 99.0368 282.319 98.7624 282.28 98.5329ZM279.69 98.1887L280.93 98.7565L280.932 98.7574L281.003 98.2089L281.091 97.5397C280.88 97.5122 280.644 97.507 280.395 97.5353C280.104 97.645 279.843 97.8562 279.69 98.1887ZM279.69 98.1887L280.93 98.759L280.93 98.7593L280.929 98.7594L279.519 98.9959C279.541 98.6721 279.592 98.4011 279.69 98.1887ZM279.788 101.027C279.536 100.646 279.513 100.126 279.507 99.5664C279.505 99.4297 279.506 99.2994 279.51 99.1759C279.51 99.1742 279.51 99.1726 279.51 99.1709C279.512 99.1278 279.514 99.0855 279.516 99.0441C279.516 99.0429 279.516 99.0417 279.516 99.0404C279.517 99.0271 279.518 99.0139 279.519 99.0008L280.929 98.7618L280.931 98.7614L280.898 99.014L280.828 99.5472L280.828 99.5477L280.827 99.5501L280.827 99.5514L280.713 100.411L280.713 100.412L280.712 100.413L280.707 100.417L279.788 101.027ZM279.788 101.027L280.707 100.418L280.712 100.415L280.594 101.302L280.579 101.421C280.577 101.421 280.576 101.421 280.575 101.42C280.574 101.42 280.573 101.42 280.572 101.42C280.393 101.396 280.209 101.351 280.026 101.283C279.938 101.215 279.857 101.13 279.788 101.027ZM282.234 99.3587L281.024 98.8024L280.9 99.5462L280.899 99.5506L280.897 99.5674L280.896 99.5696L280.761 100.381L281.657 99.7857L281.658 99.7851L282.03 99.5377L282.043 99.5296L282.223 99.4095C282.227 99.3925 282.23 99.3755 282.234 99.3587ZM280.829 99.5472L280.874 99.2049L280.828 99.5472L280.828 99.5478L280.828 99.5502L280.828 99.5514L280.714 100.411L280.713 100.413L280.714 100.412L280.716 100.411L280.828 99.5514L280.828 99.5504L280.829 99.548L280.829 99.5472ZM280.714 100.413L280.713 100.414L280.599 101.271L280.58 101.421C280.581 101.421 280.583 101.421 280.584 101.422L280.621 101.145L280.716 100.415L280.716 100.414L280.716 100.412L280.715 100.413L280.714 100.413ZM280.587 101.422C280.765 101.445 280.953 101.45 281.147 101.432C281.249 101.389 281.35 101.329 281.443 101.247C281.788 100.946 281.944 100.449 282.097 99.9106C282.134 99.7803 282.167 99.6554 282.195 99.5358C282.196 99.533 282.196 99.5302 282.197 99.5273C282.206 99.4888 282.215 99.4508 282.222 99.4134L282.047 99.5295L282.035 99.5377L281.661 99.7859L281.66 99.7865L280.761 100.382L280.749 100.452L280.749 100.453L280.587 101.422Z" fill="#FF671F" stroke="#FF671F" stroke-width="8"/>
<path d="M279.912 106.296L279.898 106.365L279.968 106.35L280.071 106.328L279.968 106.307L279.912 106.296ZM280.121 106.308L280.141 106.313L280.223 106.296L280.121 106.276L279.968 106.247L279.923 106.238L279.92 106.252L279.968 106.265L280.121 106.308ZM280.236 106.298L280.199 106.308L280.199 106.308L280.16 106.318L280.189 106.326L280.274 106.337L280.352 106.346L280.352 106.346L280.435 106.336L280.515 106.326L280.544 106.318L280.504 106.308L280.462 106.297L280.456 106.298L280.352 106.32L280.242 106.299L280.236 106.298ZM280.736 106.342L280.804 106.355L280.792 106.295L280.736 106.307L280.647 106.325L280.736 106.342ZM280.736 106.265L280.784 106.252L280.779 106.23L280.736 106.239L280.583 106.271L280.48 106.293L280.572 106.311L280.583 106.308L280.736 106.265Z" fill="#FF671F" stroke="#FF671F" stroke-width="8"/>
<path d="M279.224 106.116H279.343V106.625C279.343 106.7 279.398 106.758 279.475 106.758C279.551 106.758 279.605 106.7 279.605 106.625V106.116H279.727C279.803 106.116 279.857 106.064 279.857 105.992C279.857 105.919 279.803 105.868 279.727 105.868H279.605H279.475H279.343H279.224C279.146 105.868 279.091 105.919 279.091 105.992C279.091 106.064 279.146 106.116 279.224 106.116Z" fill="#FF671F" stroke="#FF671F" stroke-width="8"/>
<path fill-rule="evenodd" clip-rule="evenodd" d="M179.223 106.62L210.984 88.6504L179.223 70.6807V106.62ZM179.223 97.4256L109.016 88.6497L179.223 79.8738L179.223 97.4256Z" fill="#FF6B07"/>
<path d="M119.396 50.3726C119.665 50.869 120.104 51.1172 120.714 51.1172C121.219 51.1172 121.65 50.9382 122.008 50.5801C122.366 50.222 122.545 49.7907 122.545 49.2861C122.545 48.7816 122.366 48.3503 122.008 47.9922C121.65 47.6341 121.219 47.4551 120.714 47.4551H114L116.442 36.4688H124.987C125.662 36.4688 126.236 36.7088 126.708 37.189C127.188 37.661 127.428 38.2347 127.428 38.9102C127.428 39.5856 127.188 40.1634 126.708 40.6436C126.236 41.1156 125.662 41.3516 124.987 41.3516H120.104L119.848 42.6211C120.132 42.5885 120.421 42.5723 120.714 42.5723C122.57 42.5723 124.153 43.2274 125.463 44.5376C126.773 45.8478 127.428 47.4307 127.428 49.2861C127.428 51.1416 126.773 52.7244 125.463 54.0347C124.153 55.3449 122.57 56 120.714 56C118.859 56 117.276 55.3449 115.966 54.0347C115.201 53.1883 114.713 52.4396 114.501 51.7886C114.371 51.4875 114.306 51.1619 114.306 50.812C114.306 50.1366 114.542 49.5628 115.014 49.0908C115.494 48.6107 116.072 48.3706 116.747 48.3706C117.423 48.3706 118 48.6066 118.48 49.0786C118.83 49.4367 119.136 49.868 119.396 50.3726ZM135.265 50.3726C135.534 50.869 135.973 51.1172 136.583 51.1172C137.088 51.1172 137.519 50.9382 137.877 50.5801C138.236 50.222 138.415 49.7907 138.415 49.2861C138.415 48.7816 138.236 48.3503 137.877 47.9922C137.519 47.6341 137.088 47.4551 136.583 47.4551H129.87L132.311 36.4688H140.856C141.531 36.4688 142.105 36.7088 142.577 37.189C143.057 37.661 143.297 38.2347 143.297 38.9102C143.297 39.5856 143.057 40.1634 142.577 40.6436C142.105 41.1156 141.531 41.3516 140.856 41.3516H135.973L135.717 42.6211C136.002 42.5885 136.291 42.5723 136.583 42.5723C138.439 42.5723 140.022 43.2274 141.332 44.5376C142.642 45.8478 143.297 47.4307 143.297 49.2861C143.297 51.1416 142.642 52.7244 141.332 54.0347C140.022 55.3449 138.439 56 136.583 56C134.728 56 133.145 55.3449 131.835 54.0347C131.07 53.1883 130.582 52.4396 130.37 51.7886C130.24 51.4875 130.175 51.1619 130.175 50.812C130.175 50.1366 130.411 49.5628 130.883 49.0908C131.363 48.6107 131.941 48.3706 132.616 48.3706C133.292 48.3706 133.869 48.6066 134.35 49.0786C134.7 49.4367 135.005 49.868 135.265 50.3726ZM146.044 51.4224C146.044 50.7469 146.28 50.1732 146.752 49.7012C147.232 49.221 147.81 48.981 148.485 48.981C149.161 48.981 149.739 49.217 150.219 49.689C150.463 49.9412 150.646 50.2179 150.768 50.519C150.833 50.6004 150.906 50.6777 150.988 50.751C151.224 50.9951 151.509 51.1172 151.842 51.1172C152.176 51.1172 152.461 50.9992 152.697 50.7632C152.941 50.519 153.063 50.2301 153.063 49.8965C153.063 49.5628 152.941 49.278 152.697 49.042C152.461 48.7979 152.176 48.6758 151.842 48.6758C150.158 48.6758 148.717 48.0817 147.521 46.8936C146.333 45.6973 145.739 44.2568 145.739 42.5723C145.739 40.8877 146.333 39.4513 147.521 38.2632C148.717 37.0669 150.158 36.4688 151.842 36.4688C153.527 36.4688 154.914 37.0303 156.005 38.1533C157.095 39.2682 157.641 40.2326 157.641 41.0464C157.641 41.7218 157.401 42.2996 156.92 42.7798C156.448 43.2518 155.875 43.4878 155.199 43.4878C154.524 43.4878 153.95 43.2477 153.478 42.7676C153.226 42.5234 153.039 42.2508 152.917 41.9497C152.851 41.8683 152.782 41.7869 152.709 41.7056C152.465 41.4696 152.176 41.3516 151.842 41.3516C151.509 41.3516 151.22 41.4736 150.976 41.7178C150.74 41.9538 150.622 42.2386 150.622 42.5723C150.622 42.9059 150.74 43.1948 150.976 43.439C151.22 43.675 151.509 43.793 151.842 43.793C153.527 43.793 154.963 44.3911 156.151 45.5874C157.348 46.7756 157.946 48.2119 157.946 49.8965C157.946 51.5811 157.348 53.0215 156.151 54.2178C154.963 55.4059 153.527 56 151.842 56C150.158 56 148.77 55.4425 147.68 54.3276C146.589 53.2046 146.044 52.2362 146.044 51.4224ZM168.932 41.3516H165.27V43.793H168.932C169.266 43.793 169.551 43.675 169.787 43.439C170.031 43.1948 170.153 42.9059 170.153 42.5723C170.153 42.2386 170.031 41.9538 169.787 41.7178C169.551 41.4736 169.266 41.3516 168.932 41.3516ZM166.393 48.6758H165.27V53.5586C165.27 54.234 165.03 54.8118 164.55 55.292C164.078 55.764 163.504 56 162.829 56C162.153 56 161.575 55.764 161.095 55.292C160.623 54.8118 160.387 54.234 160.387 53.5586V38.9102C160.387 38.2347 160.623 37.661 161.095 37.189C161.575 36.7088 162.153 36.4688 162.829 36.4688H168.932C170.617 36.4688 172.053 37.0669 173.241 38.2632C174.438 39.4513 175.036 40.8877 175.036 42.5723C175.036 44.2568 174.442 45.6932 173.253 46.8813C172.838 47.2964 172.391 47.6423 171.911 47.9189L174.73 52.3379H174.718C174.93 52.7041 175.036 53.111 175.036 53.5586C175.036 54.234 174.796 54.8118 174.315 55.292C173.843 55.764 173.27 56 172.594 56C171.919 56 171.345 55.7599 170.873 55.2798C170.71 55.1252 170.576 54.9583 170.47 54.7793H170.458L166.393 48.6758Z" fill="#FF6B07"/>
</svg>
