<svg width="22" height="19" viewBox="0 0 22 19" fill="none" xmlns="http://www.w3.org/2000/svg">
<path d="M3.50462 14.6113C1.98207 12.3426 2.57707 9.28064 4.83491 7.76533L12.6334 2.53155C14.2748 1.42996 16.5007 1.87354 17.6076 3.52279C18.7144 5.17203 18.2815 7.40008 16.6401 8.50167L10.3271 12.7385C9.30212 13.4264 7.90934 13.1489 7.21818 12.119C6.52702 11.0892 6.79792 9.69508 7.82286 9.00722L13.3932 5.2688L14.3949 6.76133L8.75769 10.5446C8.3492 10.8188 8.85004 11.565 9.25853 11.2909L15.6384 7.00914C16.4554 6.46084 16.6731 5.34059 16.1222 4.5197C15.5712 3.69881 14.452 3.47578 13.6351 4.02408L5.83659 9.25786C4.40316 10.2199 4.02342 12.1741 4.99004 13.6144C5.95667 15.0547 7.90904 15.4437 9.34248 14.4817L16.3982 9.74639L17.3999 11.2389L10.3442 15.9742C8.08631 17.4896 5.02718 16.8799 3.50462 14.6113Z" fill="#FFFEFE"/>
</svg>
