<svg width="56" height="40" viewBox="0 0 56 40" fill="none" xmlns="http://www.w3.org/2000/svg">
<path d="M20.2248 28.3762L22.9474 12.9351H27.2647L24.5809 28.3762H20.2248ZM40.1387 13.0907C39.283 12.7407 37.9217 12.3906 36.2104 12.3906C31.932 12.3906 28.8204 14.5298 28.8204 17.6414C28.8204 19.975 30.9596 21.1419 32.671 21.9198C34.3823 22.6976 34.888 23.2033 34.888 23.9034C34.888 24.9146 33.5267 25.4591 32.3209 25.4591C30.6096 25.4591 29.6761 25.1869 28.1981 24.6035L27.6147 24.3312L27.0313 27.8317C28.0036 28.2984 29.9095 28.7263 31.8931 28.7263C36.4437 28.7263 39.4386 26.5871 39.4386 23.32C39.4386 21.5308 38.3107 20.1306 35.7436 19.0416C34.1879 18.2637 33.2544 17.8358 33.2544 17.058C33.2544 16.3579 34.0323 15.6967 35.7436 15.6967C37.2216 15.6967 38.2329 15.9689 39.0108 16.2801L39.4386 16.4356L40.1387 13.0907ZM47.4897 12.9351C46.4785 12.9351 45.7006 13.0129 45.2728 14.0631L38.8163 28.3762H43.4447L44.3004 25.8092H49.7845L50.2901 28.3762H54.4518L50.8347 12.9351H47.4897ZM45.545 23.2422C45.8173 22.4643 47.2564 18.6915 47.2564 18.6915L47.8398 17.1357L48.1121 18.6137C48.1121 18.6137 48.9677 22.4643 49.1233 23.32H45.5061V23.2422H45.545ZM12.3292 23.7478L11.9014 21.5308C11.1235 18.9638 8.63423 16.1245 5.91162 14.7632L9.72327 28.454H14.3906L21.3527 13.0129H16.6854L12.3292 23.7478Z" fill="black"/>
<path d="M11.863 19.8973C11.863 19.9362 11.9019 19.9751 11.9019 19.9751L11.7463 19.3139L10.3461 12.7796C10.0739 11.7684 9.33487 11.4961 8.36251 11.4961H0.38916L3.11177 12.3518C6.49558 13.6353 9.29598 15.7356 10.8906 18.147C11.2796 18.7693 11.5907 19.4306 11.863 20.0918V19.8973Z" fill="#858585"/>
</svg>
