<svg width="135" height="135" viewBox="0 0 135 135" fill="none" xmlns="http://www.w3.org/2000/svg">
<rect x="0.891602" y="0.866211" width="133.866" height="133.866" rx="0" fill="white"/>
<path d="M69.6407 122.732L67.6107 119.694L65.6087 122.732H62.4447L66.0147 117.776L62.5987 112.932H65.7207L67.6807 115.76L69.6127 112.932H72.6087L69.1927 117.664L72.8327 122.732H69.6407ZM73.1388 117.72H77.2268V119.764H73.1388V117.72ZM78.8745 112.932H81.6465V120.534H86.3225V122.732H78.8745V112.932ZM90.6368 115.018C91.8968 115.018 92.8582 115.308 93.5208 115.886C94.1835 116.456 94.5148 117.333 94.5148 118.518V122.732H92.0368V121.752C91.6542 122.49 90.9075 122.858 89.7968 122.858C89.2088 122.858 88.7002 122.756 88.2708 122.55C87.8415 122.345 87.5148 122.07 87.2908 121.724C87.0762 121.37 86.9688 120.968 86.9688 120.52C86.9688 119.802 87.2442 119.246 87.7948 118.854C88.3455 118.453 89.1948 118.252 90.3428 118.252H91.8548C91.8082 117.45 91.2715 117.048 90.2448 117.048C89.8808 117.048 89.5122 117.109 89.1388 117.23C88.7655 117.342 88.4482 117.501 88.1868 117.706L87.2908 115.9C87.7108 115.62 88.2195 115.406 88.8168 115.256C89.4235 115.098 90.0302 115.018 90.6368 115.018ZM90.5388 121.178C90.8468 121.178 91.1175 121.104 91.3508 120.954C91.5842 120.805 91.7522 120.586 91.8548 120.296V119.638H90.7068C89.9322 119.638 89.5448 119.895 89.5448 120.408C89.5448 120.642 89.6335 120.828 89.8108 120.968C89.9882 121.108 90.2308 121.178 90.5388 121.178ZM98.7278 116.054C98.9985 115.709 99.3485 115.452 99.7778 115.284C100.217 115.107 100.716 115.018 101.276 115.018V117.412C101.033 117.384 100.833 117.37 100.674 117.37C100.105 117.37 99.6565 117.524 99.3298 117.832C99.0125 118.14 98.8538 118.612 98.8538 119.246V122.732H96.1938V115.144H98.7278V116.054ZM110.467 115.144V121.346C110.467 122.756 110.085 123.81 109.319 124.51C108.554 125.22 107.453 125.574 106.015 125.574C105.269 125.574 104.569 125.49 103.915 125.322C103.262 125.154 102.707 124.907 102.249 124.58L103.215 122.718C103.523 122.97 103.911 123.166 104.377 123.306C104.853 123.456 105.32 123.53 105.777 123.53C106.477 123.53 106.991 123.376 107.317 123.068C107.644 122.76 107.807 122.303 107.807 121.696V121.444C107.294 122.042 106.543 122.34 105.553 122.34C104.881 122.34 104.261 122.191 103.691 121.892C103.122 121.584 102.669 121.155 102.333 120.604C101.997 120.044 101.829 119.4 101.829 118.672C101.829 117.954 101.997 117.319 102.333 116.768C102.669 116.208 103.122 115.779 103.691 115.48C104.261 115.172 104.881 115.018 105.553 115.018C106.636 115.018 107.429 115.368 107.933 116.068V115.144H110.467ZM106.183 120.226C106.659 120.226 107.051 120.082 107.359 119.792C107.677 119.503 107.835 119.13 107.835 118.672C107.835 118.215 107.681 117.846 107.373 117.566C107.065 117.277 106.669 117.132 106.183 117.132C105.698 117.132 105.297 117.277 104.979 117.566C104.671 117.846 104.517 118.215 104.517 118.672C104.517 119.13 104.676 119.503 104.993 119.792C105.311 120.082 105.707 120.226 106.183 120.226ZM119.932 118.952C119.932 118.971 119.918 119.19 119.89 119.61H114.374C114.486 120.002 114.701 120.306 115.018 120.52C115.345 120.726 115.751 120.828 116.236 120.828C116.6 120.828 116.913 120.777 117.174 120.674C117.445 120.572 117.716 120.404 117.986 120.17L119.386 121.626C118.649 122.448 117.571 122.858 116.152 122.858C115.266 122.858 114.486 122.69 113.814 122.354C113.142 122.018 112.62 121.552 112.246 120.954C111.882 120.357 111.7 119.68 111.7 118.924C111.7 118.178 111.878 117.51 112.232 116.922C112.596 116.325 113.096 115.858 113.73 115.522C114.365 115.186 115.079 115.018 115.872 115.018C116.628 115.018 117.314 115.177 117.93 115.494C118.546 115.802 119.032 116.255 119.386 116.852C119.75 117.44 119.932 118.14 119.932 118.952ZM115.886 116.908C115.476 116.908 115.13 117.025 114.85 117.258C114.58 117.492 114.407 117.809 114.332 118.21H117.44C117.366 117.809 117.188 117.492 116.908 117.258C116.638 117.025 116.297 116.908 115.886 116.908Z" fill="#C0C0C0"/>
<path d="M113.906 48.9975H113.85L112.336 42.8164C112.098 41.8319 111.124 41.092 109.925 40.9697L76.2848 37.5558C74.7429 37.3985 73.3553 38.3073 73.166 39.5831L71.7644 48.9975H71.3649C69.816 48.9975 68.5615 50.0403 68.5615 51.3278C68.5615 52.6153 69.816 53.6581 71.3649 53.6581H71.4139L75.1494 95.7547C75.3597 98.1141 77.7495 99.9609 80.5949 99.9609H104.683C107.528 99.9609 109.918 98.1141 110.128 95.7547L113.864 53.6581H113.913C115.462 53.6581 116.716 52.6153 116.716 51.3278C116.716 50.0403 115.448 48.9975 113.906 48.9975ZM78.3803 42.4669L107.241 45.3972L108.124 49.0033H77.4131L78.3803 42.4669ZM104.543 95.3003H80.7281L77.0347 53.6639H108.236L104.543 95.3003Z" fill="#C0C0C0"/>
<path fill-rule="evenodd" clip-rule="evenodd" d="M86.5971 65.8921C87.521 65.8921 88.1985 65.338 88.1985 64.4376C88.1985 63.5373 87.521 62.9832 86.5971 62.9832H85.8579V65.8921H86.5971ZM83 66.9771V61.8981C83 61.0323 83.6775 60.3975 84.6014 60.3975H86.5108C89.0362 60.3975 91.0565 61.9558 91.0565 64.4376C91.0565 66.9194 89.0362 68.4777 86.5108 68.4777H84.6014C83.6775 68.4777 83 67.8429 83 66.9771Z" fill="#C0C0C0"/>
<path fill-rule="evenodd" clip-rule="evenodd" d="M91.6611 66.8914V61.2583C91.6611 60.5194 92.2647 60 93.0408 60C93.6444 60 94.0386 60.254 94.3712 60.6695L96.0219 62.7473C96.3176 63.1167 96.6379 63.5323 96.9089 63.9709V61.5007C96.9089 60.6233 97.4016 60 98.3378 60C99.2741 60 99.7669 60.6233 99.7669 61.5007V67.1453C99.7669 67.884 99.1633 68.4035 98.3994 68.4035C97.7836 68.4035 97.4016 68.1496 97.0567 67.734L95.3075 65.6563C95.0488 65.3446 94.7532 64.929 94.5191 64.5827V66.8914C94.5191 67.7802 94.0263 68.4035 93.0901 68.4035C92.1539 68.4035 91.6611 67.7802 91.6611 66.8914Z" fill="#C0C0C0"/>
<path fill-rule="evenodd" clip-rule="evenodd" d="M87.6072 77.4L86.4738 76.1071C86.2029 75.7954 86.092 75.6684 85.8579 75.3683V76.6381C85.8579 77.4346 85.2666 78.0002 84.429 78.0002C83.5913 78.0002 83 77.4346 83 76.6381V70.9588C83 70.1623 83.5913 69.5967 84.429 69.5967C85.2666 69.5967 85.8579 70.1623 85.8579 70.9588V72.1824C86.0796 71.8823 86.2029 71.7322 86.4738 71.409L87.4594 70.2315C88.7652 68.6732 91.0811 70.4971 89.6768 72.0323L88.0999 73.7638L89.7999 75.5646C91.1426 76.9844 88.9746 78.9698 87.6072 77.4Z" fill="#C0C0C0"/>
<path fill-rule="evenodd" clip-rule="evenodd" d="M91.6611 76.4881V70.8549C91.6611 70.1161 92.2647 69.5967 93.0408 69.5967C93.6444 69.5967 94.0386 69.8506 94.3712 70.2662L96.0219 72.344C96.3176 72.7134 96.6379 73.1289 96.9089 73.5676V71.0973C96.9089 70.22 97.4017 69.5967 98.3378 69.5967C99.2741 69.5967 99.7669 70.22 99.7669 71.0973V76.742C99.7669 77.4807 99.1633 78.0002 98.3995 78.0002C97.7836 78.0002 97.4017 77.7463 97.0567 77.3307L95.3075 75.2529C95.0488 74.9412 94.7532 74.5257 94.5191 74.1793V76.4881C94.5191 77.3769 94.0264 78.0002 93.0901 78.0002C92.1539 78.0002 91.6611 77.3769 91.6611 76.4881Z" fill="#C0C0C0"/>
<path fill-rule="evenodd" clip-rule="evenodd" d="M102.783 68.4384C103.279 68.4994 103.8 68.8228 103.904 69.4002C103.961 69.7165 103.881 70.1287 103.729 70.63C103.583 71.1116 103.433 71.5551 103.106 71.8239C102.846 72.0367 102.532 72.0867 102.276 72.0551L102.264 72.0536C102.008 72.0214 101.719 71.8962 101.528 71.6273C101.287 71.2876 101.266 70.8229 101.26 70.3223C101.253 69.8011 101.291 69.3839 101.434 69.0926C101.695 68.5606 102.288 68.376 102.783 68.4384Z" fill="#C0C0C0"/>
</svg>
